<?xml version="1.0" standalone="no"?>
<!DOCTYPE svg PUBLIC "-//W3C//DTD SVG 20010904//EN"
 "http://www.w3.org/TR/2001/REC-SVG-20010904/DTD/svg10.dtd">
<svg version="1.0" xmlns="http://www.w3.org/2000/svg"
 width="296.000000pt" height="225.000000pt" viewBox="0 0 296.000000 225.000000"
 preserveAspectRatio="xMidYMid meet">

<g transform="translate(0.000000,225.000000) scale(0.100000,-0.100000)"
fill="#000000" stroke="none">
<path d="M1583 2237 c-55 -57 -65 -62 -129 -62 -56 0 -66 -3 -94 -30 -17 -16
-35 -46 -41 -66 -10 -33 -16 -37 -51 -42 -42 -6 -81 -35 -101 -77 -12 -24 -16
-25 -125 -28 -105 -2 -115 -1 -156 23 -53 31 -85 32 -121 3 -20 -16 -47 -23
-102 -28 -63 -5 -79 -10 -94 -29 -25 -30 -24 -43 6 -75 22 -23 31 -26 95 -26
67 0 70 -1 70 -24 0 -13 -43 -157 -95 -319 l-95 -294 16 -52 c18 -61 70 -123
128 -153 27 -14 67 -23 117 -26 85 -5 136 12 198 64 38 32 81 115 81 157 0 16
-43 162 -96 324 -52 163 -93 302 -90 309 4 11 34 14 131 14 l125 0 0 -102 c0
-118 11 -164 69 -302 47 -114 50 -133 19 -138 -20 -3 -23 -10 -26 -55 -3 -45
-6 -52 -27 -57 l-25 -6 0 -434 c0 -386 2 -435 16 -440 9 -3 175 -6 369 -6 340
0 355 1 365 19 6 13 10 166 10 430 0 359 -2 412 -16 425 -8 9 -22 16 -29 16
-10 0 -15 16 -17 53 -3 48 -5 52 -30 55 -24 3 -28 8 -28 36 0 52 29 135 74
216 59 104 65 127 59 214 l-6 76 127 0 c121 0 126 -1 126 -21 0 -11 -43 -154
-95 -317 -93 -288 -96 -298 -85 -344 25 -101 140 -188 251 -188 133 0 230 64
265 174 l18 56 -98 306 c-54 168 -95 312 -92 320 4 10 24 14 71 14 57 0 69 3
90 25 30 29 31 45 4 79 -18 23 -28 26 -80 26 -47 0 -70 6 -105 26 -50 30 -86
28 -134 -6 -24 -17 -44 -20 -134 -20 l-106 0 1 100 c1 75 -2 105 -14 123 -21
32 -103 70 -134 63 -13 -3 -33 -8 -45 -11 -16 -4 -31 2 -50 20 -21 20 -37 25
-75 25 -26 -1 -53 -6 -60 -13z m122 -33 c20 -13 25 -25 25 -55 l0 -39 -95 0
-95 0 0 26 c0 42 51 84 100 84 23 0 52 -7 65 -16z m184 -34 c25 -12 41 -29 45
-46 10 -38 -4 -164 -18 -164 -6 0 -19 22 -29 49 -19 55 -66 101 -103 101 -28
0 -30 10 -9 50 19 36 57 40 114 10z m-405 -30 c31 -11 32 -26 6 -60 -26 -34
-25 -50 10 -117 28 -57 60 -177 48 -188 -15 -16 -79 -17 -102 -2 -28 19 -106
227 -106 283 0 70 72 112 144 84z m348 -77 c26 -30 56 -143 74 -287 l18 -136
-62 -119 c-34 -65 -66 -140 -72 -167 -5 -27 -12 -59 -15 -72 l-5 -22 -231 2
-231 3 -45 110 c-25 61 -52 133 -59 160 -17 63 -19 235 -3 235 7 0 34 -20 60
-45 59 -56 93 -59 143 -14 32 27 40 30 79 24 l43 -7 0 -96 c-1 -129 17 -137
24 -12 8 141 37 187 125 199 38 6 40 8 43 44 3 29 9 41 28 49 24 11 33 28 13
28 -5 0 -30 -5 -54 -11 -103 -26 -205 26 -205 104 0 20 6 38 13 40 6 3 78 6
158 6 127 1 148 -1 161 -16z m-475 -168 c59 -155 56 -185 -17 -185 -32 0 -45
8 -98 64 -58 60 -62 67 -62 111 0 82 35 127 94 123 l41 -3 42 -110z m-476 36
c19 -15 24 -29 24 -65 0 -55 -18 -76 -73 -83 -34 -5 -44 -1 -66 20 -77 77 31
196 115 128z m1449 -1 c20 -20 28 -93 12 -116 -24 -37 -87 -43 -126 -13 -34
27 -37 91 -4 126 28 30 89 32 118 3z m-1620 -65 l0 -35 -59 0 c-62 0 -78 12
-66 51 5 16 17 19 66 19 l59 0 0 -35z m440 0 l0 -35 -105 0 -105 0 0 35 0 35
105 0 105 0 0 -35z m503 29 c58 -10 49 -36 -19 -58 -31 -10 -57 -16 -59 -14
-2 2 -6 20 -10 41 -7 36 -6 37 21 37 16 0 46 -3 67 -6z m505 -26 l-3 -33 -112
-3 c-120 -3 -120 -3 -107 46 6 21 11 22 116 22 l109 0 -3 -32z m347 21 c4 -5
4 -21 1 -35 -6 -22 -11 -24 -66 -24 l-60 0 0 35 0 35 59 0 c33 0 63 -5 66 -11z
m-1697 -417 l2 -282 -105 0 c-101 0 -105 1 -105 22 0 16 125 422 165 536 3 8
13 12 22 10 17 -3 18 -26 21 -286z m72 283 c0 -3 38 -124 85 -269 47 -145 85
-271 85 -280 0 -14 -14 -16 -105 -16 l-105 0 0 278 c0 153 3 282 7 285 7 8 33
9 33 2z m1375 -280 l0 -280 -107 -3 c-69 -2 -108 1 -108 8 0 11 169 540 177
553 3 4 12 7 21 5 15 -3 17 -31 17 -283z m126 100 c33 -99 62 -189 64 -200 3
-11 16 -53 30 -94 14 -41 24 -76 22 -77 -1 -2 -47 -4 -102 -5 l-100 -2 -3 282
c-3 353 2 358 89 96z m-541 -385 l0 -40 -295 0 -295 0 0 40 0 40 295 0 295 0
0 -40z m-780 -51 c0 -32 -37 -106 -65 -128 -50 -38 -108 -53 -193 -50 -70 4
-86 8 -123 34 -56 40 -79 73 -86 123 l-6 42 237 0 c231 0 236 0 236 -21z
m1444 -1 c-1 -10 -2 -27 -3 -38 -2 -30 -66 -95 -116 -119 -82 -39 -219 -24
-277 30 -37 35 -68 90 -68 122 l0 27 233 -2 c214 -3 232 -4 231 -20z m-614
-433 l0 -405 -340 0 -340 0 0 405 0 405 340 0 340 0 0 -405z"/>
<path d="M1737 1062 c-34 -38 -14 -90 40 -106 17 -5 29 -1 48 18 29 29 31 52
9 84 -19 28 -74 30 -97 4z m68 -42 c0 -18 -6 -26 -22 -28 -18 -3 -23 1 -23 21
0 28 9 39 30 35 9 -2 15 -14 15 -28z"/>
</g>
</svg>
