<?xml version="1.0" standalone="no"?>
<!DOCTYPE svg PUBLIC "-//W3C//DTD SVG 20010904//EN"
 "http://www.w3.org/TR/2001/REC-SVG-20010904/DTD/svg10.dtd">
<svg version="1.0" xmlns="http://www.w3.org/2000/svg"
 width="197.000000pt" height="191.000000pt" viewBox="0 0 197.000000 191.000000"
 preserveAspectRatio="xMidYMid meet">

<g transform="translate(0.000000,191.000000) scale(0.100000,-0.100000)"
fill="#000000" stroke="none">
<path d="M1013 1888 c-26 -32 -433 -748 -433 -761 0 -14 329 -209 341 -201 4
2 49 76 99 164 77 134 95 158 109 150 9 -5 176 -110 371 -234 404 -255 359
-242 424 -125 28 52 33 69 24 76 -7 6 -181 100 -385 209 -205 109 -373 203
-373 209 0 5 41 80 90 165 69 119 86 158 77 167 -11 10 -324 193 -331 193 -2
0 -8 -6 -13 -12z m166 -115 c74 -43 136 -83 138 -88 2 -6 -3 -20 -11 -30 -15
-20 -16 -20 -68 9 -29 15 -95 53 -146 82 l-92 55 16 24 c9 14 19 25 23 25 3 0
67 -35 140 -77z m-1 -116 c51 -28 91 -57 90 -63 -7 -26 -304 -533 -313 -533
-16 -1 -280 155 -280 165 0 5 69 129 154 276 l153 267 52 -30 c28 -16 93 -53
144 -82z m237 -452 c132 -70 259 -138 282 -151 l42 -24 -25 -27 c-13 -14 -24
-34 -24 -44 0 -11 -5 -19 -10 -19 -6 0 -115 66 -243 147 -127 80 -249 157
-270 170 l-38 24 17 29 c10 16 20 27 23 26 3 -2 114 -61 246 -131z m-568 -128
c51 -28 93 -54 93 -57 0 -3 -9 -16 -19 -29 l-18 -24 -142 82 c-77 46 -141 86
-141 90 0 3 7 17 16 29 l15 22 52 -30 c29 -17 94 -54 144 -83z m1003 -107 c33
-17 60 -33 60 -37 0 -5 -47 -90 -56 -101 -1 -2 -22 8 -46 22 -88 52 -107 87
-68 126 27 27 40 25 110 -10z"/>
<path d="M273 510 c-50 -30 -64 -61 -70 -149 l-6 -80 -71 -3 -71 -3 -23 -120
c-12 -65 -20 -125 -18 -132 4 -10 167 -13 839 -13 459 0 836 2 839 5 2 3 -5
62 -16 132 l-22 128 -74 5 -75 5 -5 80 c-6 90 -18 118 -63 145 -31 19 -55 20
-582 20 -528 0 -551 -1 -582 -20z m1133 -25 c45 -19 66 -67 62 -143 l-3 -57
-610 0 -610 0 -3 71 c-2 60 0 74 19 98 12 15 31 32 43 36 11 5 256 9 544 9
437 1 528 -1 558 -14z m219 -258 c14 -56 32 -177 27 -182 -9 -9 -1602 -5
-1602 4 0 13 30 173 35 189 3 9 166 12 769 12 l766 0 5 -23z"/>
<path d="M165 149 c-4 -6 -3 -15 2 -20 5 -5 287 -8 694 -7 600 3 684 5 684 18
0 13 -84 15 -687 18 -489 1 -689 -1 -693 -9z"/>
</g>
</svg>
