<?xml version="1.0" standalone="no"?>
<!DOCTYPE svg PUBLIC "-//W3C//DTD SVG 20010904//EN"
 "http://www.w3.org/TR/2001/REC-SVG-20010904/DTD/svg10.dtd">
<svg version="1.0" xmlns="http://www.w3.org/2000/svg"
 width="196.000000pt" height="183.000000pt" viewBox="0 0 196.000000 183.000000"
 preserveAspectRatio="xMidYMid meet">

<g transform="translate(0.000000,183.000000) scale(0.100000,-0.100000)"
fill="#000000" stroke="none">
<path d="M23 1813 c-10 -4 -13 -194 -13 -903 l0 -898 23 -6 c29 -8 1771 -8
1791 0 11 4 16 19 16 45 l0 38 53 3 52 3 3 70 c4 93 -2 111 -39 124 -18 6 -97
11 -175 11 -139 0 -144 1 -144 21 0 32 -19 59 -40 59 -16 0 -20 7 -20 35 0 24
5 35 15 35 23 0 55 37 55 65 0 32 -33 65 -65 65 -25 0 -25 0 -24 93 1 162 15
320 34 372 24 68 15 114 -31 154 -19 17 -41 31 -49 31 -12 0 -15 45 -17 293
l-3 292 -705 2 c-388 1 -711 -1 -717 -4z m1387 -305 l0 -273 -33 -15 c-39 -18
-77 -73 -77 -112 0 -16 7 -45 16 -66 9 -22 19 -90 24 -172 5 -74 11 -170 14
-212 l5 -78 -29 0 c-75 0 -96 -91 -29 -126 38 -19 41 -69 5 -78 -17 -4 -25
-15 -30 -40 l-7 -35 -158 -3 c-202 -4 -203 -5 -199 -122 l3 -81 48 -3 c42 -3
47 -5 47 -28 l0 -24 -480 0 -480 0 0 870 0 870 680 0 680 0 0 -272z m80 -335
c36 -33 40 -65 17 -134 -13 -37 -36 -324 -37 -446 0 -8 -14 -13 -39 -13 l-39
0 -6 128 c-8 169 -24 319 -36 342 -5 10 -10 37 -10 58 0 33 6 45 31 66 40 34
80 34 119 -1z m77 -648 c1 -5 -2 -17 -7 -25 -13 -21 -246 -22 -259 -1 -23 36
-3 42 132 39 76 -2 132 -7 134 -13z m-72 -110 l0 -30 -65 0 c-54 0 -65 3 -68
18 -8 40 5 48 70 45 63 -3 63 -3 63 -33z m55 -95 c0 -19 -7 -20 -120 -20 -113
0 -120 1 -120 20 0 19 7 20 120 20 113 0 120 -1 120 -20z m358 -72 c7 -7 12
-36 12 -65 l0 -53 -490 0 -490 0 0 53 c0 29 5 58 12 65 17 17 939 17 956 0z
m-98 -183 l0 -25 -380 0 -380 0 0 25 0 25 380 0 380 0 0 -25z"/>
<path d="M701 1651 c-29 -40 -104 -86 -183 -111 l-68 -22 0 -61 c1 -187 80
-368 194 -444 62 -42 106 -43 167 -5 120 77 191 233 193 426 l1 89 -47 13
c-73 18 -135 52 -182 100 -25 24 -47 44 -50 44 -2 0 -14 -13 -25 -29z m69 -60
c42 -34 110 -70 165 -86 l40 -13 -3 -63 c-9 -190 -91 -354 -203 -404 -41 -19
-41 -19 -85 5 -113 59 -187 210 -196 398 l-3 63 60 20 c55 19 158 79 171 100
8 14 17 11 54 -20z"/>
<path d="M415 889 c-4 -6 -3 -15 2 -20 5 -5 138 -8 319 -7 267 3 309 5 309 18
0 13 -42 15 -312 18 -219 1 -314 -1 -318 -9z"/>
<path d="M245 750 c-3 -5 -3 -14 0 -20 7 -11 967 -15 978 -3 4 3 2 12 -4 20
-9 10 -102 13 -490 13 -308 0 -480 -4 -484 -10z"/>
<path d="M240 595 c0 -13 61 -15 490 -15 429 0 490 2 490 15 0 13 -61 15 -490
15 -429 0 -490 -2 -490 -15z"/>
<path d="M237 463 c-4 -3 -2 -12 4 -20 9 -10 101 -13 488 -13 262 0 482 4 490
9 43 28 -9 31 -488 31 -268 0 -491 -3 -494 -7z"/>
<path d="M215 319 c-4 -6 -3 -15 2 -20 5 -5 130 -8 299 -7 249 3 289 5 289 18
0 13 -40 15 -292 18 -204 2 -294 -1 -298 -9z"/>
<path d="M210 165 c0 -13 36 -15 298 -13 189 2 297 7 297 13 0 6 -108 11 -297
13 -262 2 -298 0 -298 -13z"/>
</g>
</svg>
