<svg xmlns="http://www.w3.org/2000/svg" viewBox="0 0 85.25 72.63"><defs><style>.cls-1,.cls-2,.cls-3{fill:#009080;}.cls-2,.cls-3{stroke:#fff;stroke-miterlimit:10;}.cls-3{fill-rule:evenodd;}</style></defs><g id="Layer_2" data-name="Layer 2"><g id="Layer_1-2" data-name="Layer 1"><path class="cls-1" d="M81.31,50.19c.69,0,1.26,0,1.82,0A2.18,2.18,0,0,1,85.18,53q-1,4-2.05,8.08a4.86,4.86,0,0,1-3.85,3.74l-.9.22a4.93,4.93,0,0,1,1,3.69,4.64,4.64,0,0,1-7.75,2.64q-2.76-2.67-5.43-5.44a2.5,2.5,0,0,0-2-.83q-28.17,0-56.33,0a5.37,5.37,0,0,1-4.45-1.68,6.48,6.48,0,0,1-1.3-2.37c-.74-2.61-1.36-5.26-2-7.89a2.2,2.2,0,0,1,2.28-3H3.92V5.59A5.23,5.23,0,0,1,7.83.21a7.62,7.62,0,0,1,2-.2H75.43c3.76,0,5.88,2.13,5.88,5.87V50.19Zm-60.08,0a25.34,25.34,0,0,1-4.81-18.23,24.93,24.93,0,0,1,9-16.58A25.55,25.55,0,0,1,63.69,48.1a14.57,14.57,0,0,1,1.44,1.3,2.2,2.2,0,0,0,1.89.81c2.41-.06,4.81,0,7.21,0h1.08V6H9.9V50.15Zm20.55,9A24.24,24.24,0,1,0,17.55,35,24.23,24.23,0,0,0,41.78,59.19Zm38.21-9V5.87c0-3-1.53-4.56-4.54-4.56q-32.87,0-65.72,0c-2.95,0-4.49,1.56-4.49,4.51V50.11H8.53V6.22c0-1.59,0-1.59,1.58-1.59h65c1.63,0,1.63,0,1.63,1.63v43.9Zm-20.47,9.3c-1.26,1-1.26,1-2.41-.15-.55-.56-1.15-1.09-1.66-1.69a1,1,0,0,0-1.58-.26,23.38,23.38,0,0,1-10.07,3A25.3,25.3,0,0,1,22.74,52a1.57,1.57,0,0,0-1-.47q-9.59,0-19.15,0c-1.13,0-1.43.38-1.16,1.46.63,2.51,1.26,5,1.9,7.52a4,4,0,0,0,4.23,3.3H63.18a3.44,3.44,0,0,0,.56-.09Zm6.71-6.66a.3.3,0,0,0,.06.11L76.8,63.44a1.17,1.17,0,0,0,.55.31,4.15,4.15,0,0,0,4.51-3c.66-2.53,1.29-5.07,1.93-7.61.33-1.32.06-1.65-1.3-1.65-4.55,0-9.1,0-13.65,0C67.69,51.47,66.75,51.61,66.23,52.8Zm-5.68,5.7q3.81,3.8,7.58,7.58c1.43,1.43,2.83,2.89,4.3,4.28A3.32,3.32,0,0,0,78,68.81a3.36,3.36,0,0,0-1-3.36Q71.26,59.8,65.61,54.12a3.4,3.4,0,0,0-.38-.32Zm-2.26,0,7-7L63,49.16a26.45,26.45,0,0,1-7,7Z"/><path class="cls-2" d="M31,39.36a1,1,0,0,1-1.05,1,1.1,1.1,0,0,1-1.12-1V37.13a1.1,1.1,0,0,1,1.12-1.05A1,1,0,0,1,31,37.13v2.23Z"/><path class="cls-2" d="M38.16,46.53v.07a1,1,0,0,1-.21.64,14.39,14.39,0,0,1-3.1,3.67,1.11,1.11,0,0,1-1.91-.85,1,1,0,0,1,.42-.84,11.56,11.56,0,0,0,2.54-3A1.23,1.23,0,0,1,37,45.4a1.12,1.12,0,0,1,1.13,1.13Z"/><path class="cls-2" d="M55.73,37.85v5a1.13,1.13,0,1,1-2.25,0v-5a1.13,1.13,0,0,1,2.25,0Z"/><path class="cls-2" d="M43.45,44.63v5a1.13,1.13,0,1,1-2.25,0v-5a1.13,1.13,0,1,1,2.25,0Z"/><path class="cls-2" d="M51.08,43.85v.07a1.18,1.18,0,0,1-1.2,1.13,1.15,1.15,0,0,1-1.13-1.13v-.07a1.16,1.16,0,0,1,1.13-1.13A1.18,1.18,0,0,1,51.08,43.85Z"/><path class="cls-2" d="M55.73,31.29v2.26a1.13,1.13,0,1,1-2.25,0V31.29A12.78,12.78,0,0,0,53.26,29a11.42,11.42,0,0,0-22.37,0,12.78,12.78,0,0,0-.21,2.33v2.12a1.12,1.12,0,0,1-1.13,1.13,1.18,1.18,0,0,1-1.2-1.13V31.29A12,12,0,0,1,28.57,29a13.71,13.71,0,0,1,27,0,17.78,17.78,0,0,1,.14,2.33Z"/><path class="cls-3" d="M46.28,29.46a4.77,4.77,0,0,1,.35,1.83,4.64,4.64,0,0,1-2.26,4,5,5,0,0,1-2.33.57A4.05,4.05,0,0,1,41,35.67a5.27,5.27,0,0,1-1.19-.43v5.65a1.18,1.18,0,0,1-1.13,1.2,1,1,0,0,1-.64-.21.92.92,0,0,1-.42-.43h0a2.15,2.15,0,0,1-.07-.56v-9.6a4.56,4.56,0,0,1,8.75-1.83Zm-1.91,1.83a2.29,2.29,0,1,0-4.58,0A2.27,2.27,0,0,0,42,33.55a2,2,0,0,0,.92-.21,2.44,2.44,0,0,0,1.34-1.55A2.49,2.49,0,0,1,44.37,31.29Z"/><path class="cls-2" d="M50.93,29a9.53,9.53,0,0,1,.29,2.33v9.1A1.18,1.18,0,0,1,50,41.52a1.15,1.15,0,0,1-1.13-1.13v-9.1A8,8,0,0,0,48.54,29,6.92,6.92,0,0,0,42,24.45,6.82,6.82,0,0,0,35.62,29a6.66,6.66,0,0,0-.42,2.33v9.1a9.17,9.17,0,0,1-2.61,6.43,1.18,1.18,0,0,1-.85.35A1.17,1.17,0,0,1,30.61,46a1.09,1.09,0,0,1,.5-.92H31a6.79,6.79,0,0,0,1.91-4.73v-9.1A9.53,9.53,0,0,1,33.22,29a9.15,9.15,0,0,1,17.71,0Z"/><path class="cls-2" d="M45.08,42a1.15,1.15,0,0,1-.57-.5,8.39,8.39,0,0,1-2-3.17,1.2,1.2,0,0,1-.07-.85,1.12,1.12,0,0,1,1.41-.7,1.1,1.1,0,0,1,.77.7A6.31,6.31,0,0,0,46.21,40a1.12,1.12,0,0,1,.35,1.2A1.16,1.16,0,0,1,45.08,42Z"/></g></g></svg>
