<?xml version="1.0" standalone="no"?>
<!DOCTYPE svg PUBLIC "-//W3C//DTD SVG 20010904//EN"
 "http://www.w3.org/TR/2001/REC-SVG-20010904/DTD/svg10.dtd">
<svg version="1.0" xmlns="http://www.w3.org/2000/svg"
 width="154.000000pt" height="186.000000pt" viewBox="0 0 154.000000 186.000000"
 preserveAspectRatio="xMidYMid meet">

<g transform="translate(0.000000,186.000000) scale(0.100000,-0.100000)"
fill="#000000" stroke="none">
<path d="M179 1850 c-79 -14 -136 -54 -158 -113 -15 -39 -15 -1575 0 -1614 16
-43 58 -81 108 -98 40 -13 137 -15 721 -13 l675 3 3 885 c1 487 0 895 -3 908
-12 51 -25 52 -687 51 -337 -1 -634 -5 -659 -9z m41 -773 l0 -744 -53 -12
c-29 -6 -70 -23 -90 -37 l-37 -25 0 722 c0 638 2 725 16 754 22 48 80 82 142
84 l22 1 0 -743z m1270 724 c7 -13 10 -264 10 -745 l0 -726 -620 0 -620 0 0
745 0 745 610 0 c592 0 610 -1 620 -19z m10 -1556 l0 -55 -725 0 c-469 0 -725
3 -725 10 0 5 13 24 28 41 49 55 76 57 785 58 l637 1 0 -55z m0 -150 l0 -55
-652 0 c-443 0 -666 4 -693 11 -38 11 -105 66 -105 88 0 8 204 11 725 11 l725
0 0 -55z"/>
<path d="M803 1490 c-71 -43 -89 -116 -50 -201 22 -47 24 -61 17 -107 -21
-124 -88 -216 -167 -228 -61 -9 -83 -32 -83 -89 0 -43 -1 -45 -29 -45 -58 0
-61 -5 -61 -96 l0 -84 448 2 447 3 3 81 c3 88 -1 93 -65 94 -20 0 -23 5 -23
39 0 57 -30 89 -91 97 -39 5 -55 14 -79 41 -43 49 -67 101 -81 177 -12 63 -11
68 11 108 61 108 -6 228 -127 228 -21 0 -52 -9 -70 -20z m127 -25 c41 -21 60
-53 60 -102 0 -61 -39 -103 -102 -110 -42 -5 -49 -2 -83 29 -31 28 -38 41 -39
76 -2 89 86 147 164 107z m25 -291 c7 -56 52 -161 78 -183 10 -7 17 -17 17
-22 0 -5 -79 -9 -175 -9 l-175 0 35 46 c33 43 56 104 70 184 l6 35 69 0 68 0
7 -51z m239 -270 c9 -8 16 -31 16 -50 l0 -34 -330 0 -330 0 0 38 c0 21 5 43
12 50 9 9 93 12 314 12 262 0 305 -2 318 -16z m104 -176 l3 -48 -420 0 -421 0
0 50 0 50 418 -2 417 -3 3 -47z"/>
</g>
</svg>
