<?xml version="1.0" standalone="no"?>
<!DOCTYPE svg PUBLIC "-//W3C//DTD SVG 20010904//EN"
 "http://www.w3.org/TR/2001/REC-SVG-20010904/DTD/svg10.dtd">
<svg version="1.0" xmlns="http://www.w3.org/2000/svg"
 width="210.000000pt" height="207.000000pt" viewBox="0 0 210.000000 207.000000"
 preserveAspectRatio="xMidYMid meet">

<g transform="translate(0.000000,207.000000) scale(0.100000,-0.100000)"
fill="#000000" stroke="none">
<path d="M565 1921 c-601 -162 -555 -148 -555 -168 0 -17 379 -1436 385 -1442
3 -2 31 3 64 11 l60 16 3 -37 3 -36 575 0 575 0 3 102 c2 83 6 103 17 103 20
0 55 -58 55 -90 0 -29 184 -356 208 -369 29 -17 132 43 132 76 0 28 -182 333
-225 378 -38 38 -43 50 -48 102 -4 50 -2 63 19 93 52 78 68 131 68 220 1 71
-4 94 -25 140 -33 71 -80 124 -146 167 l-53 33 -2 278 -3 277 -237 3 -238 2
-14 53 c-8 28 -25 90 -38 137 -21 76 -26 85 -48 87 -14 1 -254 -60 -535 -136z
m560 -8 c15 -60 30 -114 32 -120 4 -10 -66 -13 -313 -15 l-319 -3 -3 -691 c-2
-537 -5 -694 -15 -702 -6 -5 -29 -15 -49 -20 -38 -10 -38 -10 -47 26 -6 21
-87 323 -181 674 -93 350 -171 646 -172 659 -3 21 19 28 507 160 281 76 515
138 521 138 6 1 24 -47 39 -106z m515 -425 l0 -253 -93 0 c-84 0 -98 -3 -158
-32 -79 -39 -141 -102 -177 -181 -21 -47 -26 -72 -26 -142 -1 -75 3 -93 31
-152 39 -84 97 -142 181 -181 60 -28 77 -32 155 -31 l87 0 0 -108 0 -108 -540
0 -540 0 0 720 0 720 540 0 540 0 0 -252z m42 -316 c60 -26 126 -93 158 -157
34 -69 35 -197 3 -267 -93 -202 -349 -258 -511 -113 -76 68 -107 139 -107 241
0 73 4 88 35 150 40 77 104 134 180 159 63 21 182 14 242 -13z m101 -594 c11
-32 -53 -78 -88 -64 -25 9 -17 23 28 49 50 30 54 31 60 15z m22 -105 c17 -25
17 -27 -1 -40 -15 -11 -20 -10 -35 14 -13 20 -15 31 -7 40 15 19 24 16 43 -14z
m150 -211 c50 -86 91 -162 93 -169 2 -7 -14 -21 -35 -32 l-39 -19 -92 159
c-51 88 -92 163 -92 168 0 8 56 48 70 50 3 0 46 -70 95 -157z"/>
<path d="M644 1647 c-2 -7 -3 -60 -2 -118 l3 -104 455 0 455 0 0 115 0 115
-453 3 c-369 2 -453 0 -458 -11z m876 -107 l0 -80 -420 0 -420 0 0 80 0 80
420 0 420 0 0 -80z"/>
<path d="M671 1301 c-42 -27 8 -31 364 -31 356 0 406 4 364 31 -18 11 -710 11
-728 0z"/>
<path d="M664 1139 c-15 -24 31 -29 281 -26 238 2 260 3 263 20 3 16 -15 17
-267 17 -187 0 -272 -3 -277 -11z"/>
<path d="M665 1000 c-3 -5 -3 -14 0 -20 7 -11 437 -14 448 -3 4 3 2 12 -4 20
-14 16 -434 19 -444 3z"/>
<path d="M665 860 c-16 -26 14 -30 221 -30 200 0 215 1 212 18 -3 15 -23 17
-215 20 -136 1 -214 -1 -218 -8z"/>
<path d="M662 708 c6 -16 476 -19 481 -3 1 6 -85 11 -241 13 -193 2 -243 0
-240 -10z"/>
<path d="M660 566 c0 -8 7 -17 16 -20 25 -9 597 -7 613 3 41 26 -8 31 -315 31
-262 0 -314 -2 -314 -14z"/>
<path d="M1135 409 c-16 -25 19 -29 206 -27 165 3 194 5 194 18 0 13 -30 15
-197 18 -136 2 -199 -1 -203 -9z"/>
<path d="M1510 1109 c-59 -13 -123 -100 -106 -144 10 -26 25 -16 36 24 25 93
132 117 190 43 46 -58 8 -154 -66 -168 l-35 -6 3 -77 c3 -88 21 -98 28 -17 5
53 7 56 49 78 153 81 71 303 -99 267z"/>
<path d="M1531 666 c-9 -11 -8 -15 5 -20 23 -9 24 -8 24 14 0 23 -13 26 -29 6z"/>
</g>
</svg>
