<svg width="88" height="88" viewBox="0 0 88 88" fill="none" xmlns="http://www.w3.org/2000/svg">
<path d="M78.8333 88H9.16663C8.15463 88 7.33329 87.1787 7.33329 86.1667C7.33329 85.1547 8.15463 84.3333 9.16663 84.3333H78.8333C79.8453 84.3333 80.6666 85.1547 80.6666 86.1667C80.6666 87.1787 79.8453 88 78.8333 88ZM87.8313 71.335C87.8313 59.9317 80.0213 51.3333 69.6666 51.3333H58.8976C57.1376 51.3333 55.4913 50.5487 54.3913 49.181C53.2803 47.8097 52.8586 46.0387 53.2326 44.3153L54.0246 40.634C56.4116 29.5607 58.6703 19.0997 58.6703 14.6667C58.6703 6.578 52.0923 0 44.0036 0C35.915 0 29.337 6.578 29.337 14.6667C29.337 19.569 31.9513 31.581 34.716 44.3043C35.09 46.0277 34.672 47.8023 33.5646 49.1737C32.4573 50.545 30.8146 51.3333 29.051 51.3333H18.337C7.78796 51.3333 -0.165039 59.9317 -0.165039 71.335C-0.165039 73.6083 1.33829 76.989 5.48529 77H82.1883C86.328 76.989 87.8313 73.6047 87.8313 71.335ZM29.0473 55C31.9256 55 34.6133 53.713 36.4173 51.4763C38.225 49.236 38.9106 46.3393 38.2983 43.527C35.695 31.5553 33.0036 19.1767 33.0036 14.6703C33.0036 8.60567 37.939 3.67033 44.0036 3.67033C50.0683 3.67033 55.0036 8.60567 55.0036 14.6703C55.0036 18.711 52.789 28.985 50.4423 39.864L49.6466 43.549C49.0453 46.3613 49.7346 49.2543 51.5423 51.491C53.35 53.7277 56.034 55.0073 58.905 55.0073H69.674C78.0743 55.0073 84.172 61.8787 84.172 71.3423C84.172 71.808 84.029 73.337 82.192 73.3407H5.48896C3.80229 73.337 3.51996 72.072 3.50163 71.3423C3.50163 61.8787 9.73863 55.0073 18.3333 55.0073H29.0473V55Z" fill="#DFAF37"/>
</svg>
