<svg xmlns="http://www.w3.org/2000/svg" width="25" height="25"><g fill="#fff" transform="translate(3.996 -1031.366)"><circle cx="8.504" cy="1043.866" r="12.5" fill="#ef4c45" fill-rule="evenodd"/><path style="line-height:normal;text-indent:0;text-align:start;text-decoration-line:none;text-decoration-style:solid;text-decoration-color:#000;text-transform:none;block-progression:tb;isolation:auto;mix-blend-mode:normal" fill="#df2209" d="M9.893 24.719a12.5 12.5 0 0 0 .125.031 12.5 12.5 0 0 0 1.234.188A12.5 12.5 0 0 0 12.5 25a12.5 12.5 0 0 0 .885-.031 12.5 12.5 0 0 0 1.24-.15 12.5 12.5 0 0 0 1.219-.274 12.5 12.5 0 0 0 1.185-.395 12.5 12.5 0 0 0 1.14-.51 12.5 12.5 0 0 0 1.085-.622 12.5 12.5 0 0 0 1.016-.727 12.5 12.5 0 0 0 .939-.824 12.5 12.5 0 0 0 .852-.914 12.5 12.5 0 0 0 .755-.994 12.5 12.5 0 0 0 .655-1.067 12.5 12.5 0 0 0 .543-1.125 12.5 12.5 0 0 0 .427-1.174 12.5 12.5 0 0 0 .309-1.21 12.5 12.5 0 0 0 .188-1.235A12.5 12.5 0 0 0 25 12.5a12.5 12.5 0 0 0-.031-.885 12.5 12.5 0 0 0-.15-1.24 12.5 12.5 0 0 0-.11-.49l-4.297-4.297A1.994 1.994 0 0 0 19 5H7c-1.1 0-2 .9-2 2v12c0 .55.225 1.05.588 1.412l4.305 4.307zm7.714-8.112H20V19c0 .563-.437 1-1 1h-2.393v-2.393c0-.562.438-1 1-1z" color="#000" font-family="sans-serif" font-weight="400" transform="translate(-3.996 1031.366)"/><rect width="15" height="15" x=".5" y="1036.862" fill="none" stroke="#fff" rx="1.5" ry="1.5" transform="translate(1.004 .004)"/></g></svg>