<svg width="88" height="88" viewBox="0 0 88 88" fill="none" xmlns="http://www.w3.org/2000/svg">
<path d="M87.4793 39.0537C86.7643 38.3387 85.6019 38.3387 84.8869 39.0537L81.5759 42.3647L45.6829 6.47169L48.9939 3.16069C49.7089 2.44569 49.7089 1.28335 48.9939 0.568355C48.2789 -0.146646 47.1166 -0.146646 46.4016 0.568355L17.0683 29.9017C16.3533 30.6167 16.3533 31.779 17.0683 32.494C17.4276 32.8534 17.8969 33.0294 18.3663 33.0294C18.8356 33.0294 19.3049 32.8497 19.6643 32.494L23.0889 29.0694L39.7356 45.716L0.535273 84.8687C-0.179727 85.5837 -0.179727 86.746 0.535273 87.4647C0.894607 87.824 1.36394 88 1.83327 88C2.30261 88 2.77194 87.8204 3.13127 87.4647L42.3279 48.312L58.9783 64.9624L55.5536 68.387C54.8386 69.102 54.8386 70.2644 55.5536 70.9794C55.9129 71.3387 56.3823 71.5147 56.8516 71.5147C57.3209 71.5147 57.7903 71.335 58.1496 70.9794L87.4829 41.646C88.1979 40.931 88.1979 39.7687 87.4829 39.0537H87.4793ZM51.7879 52.5874L43.6333 44.4327L43.6259 44.4217L43.6149 44.4144L35.7279 36.5274L53.1409 19.1144L69.1973 35.1707C66.1283 38.2397 55.4913 48.8767 51.7843 52.5837L51.7879 52.5874ZM43.0906 9.06402L50.5486 16.522L33.1356 33.935L25.6776 26.477L43.0906 9.06402ZM54.3766 55.1797C58.0909 51.4654 68.7243 40.832 71.7896 37.7667L78.9799 44.957L61.5669 62.37L54.3766 55.1797V55.1797Z" fill="#DFAF37"/>
</svg>
