<svg width="88" height="88" viewBox="0 0 88 88" fill="none" xmlns="http://www.w3.org/2000/svg">
<path d="M87.868 45.1513L87.857 45.1293L87.8497 45.111L75.042 13.0937C73.6413 9.592 70.301 7.32967 66.5317 7.32967H45.8297V1.83333C45.8297 0.821333 45.0083 0 43.9963 0C42.9843 0 42.163 0.821333 42.163 1.83333V7.33333H21.4647C17.6953 7.33333 14.355 9.59567 12.9543 13.0973L0.150333 45.111L0.143 45.1293L0.132 45.1513C0.044 45.3677 0 49.1883 0 49.1883C0 57.244 5.34233 64.0053 12.991 65.6297C14.1423 65.8753 15.3157 66 16.4743 66H16.5037C25.597 65.9853 33 58.5823 33 49.5C33 49.5 32.956 45.3713 32.868 45.1513L32.857 45.1293L32.8497 45.111L19.371 11.4107C20.02 11.143 20.7277 11 21.4647 11H42.1667V84.3333H16.5C15.488 84.3333 14.6667 85.1547 14.6667 86.1667C14.6667 87.1787 15.488 88 16.5 88H71.5C72.512 88 73.3333 87.1787 73.3333 86.1667C73.3333 85.1547 72.512 84.3333 71.5 84.3333H45.8333V11H66.5353C67.2723 11 67.9837 11.143 68.629 11.4107L55.1503 45.111L55.143 45.1293L55.132 45.1513C55.044 45.3677 55 49.5 55 49.5C55 58.5823 62.403 65.9853 71.4963 66H71.5257C72.6843 66 73.8577 65.8753 75.0053 65.6297C82.6577 64.0017 88 57.2403 88 49.1883C88 49.1883 87.956 45.3677 87.868 45.1513ZM16.4963 62.3333C15.4587 62.392 14.663 62.238 13.7537 62.0437C7.81733 60.7823 3.66667 55.495 3.66667 49.1883V47.6667H29.3333V49.5C29.3333 56.562 23.5767 62.3223 16.4963 62.3333ZM28.4607 44H4.53933C4.53933 44 16.4523 14.2303 16.5073 14.1203L28.4607 44ZM71.4927 14.1203C71.5477 14.2303 83.457 44 83.457 44H59.5393L71.4927 14.1203ZM74.2427 62.0437C73.337 62.238 72.534 62.3993 71.5037 62.3333C64.4233 62.3223 58.6667 56.562 58.6667 49.5V47.6667H84.3333V49.1883C84.3333 55.495 80.1827 60.7823 74.2427 62.0437Z" fill="#DFAF37"/>
</svg>
