<svg id="Layer_1" data-name="Layer 1" xmlns="http://www.w3.org/2000/svg" viewBox="0 0 725.2 347"><defs><style>.cls-1{fill:#fff;}</style></defs><title>Ethaq white logo</title><polygon class="cls-1" points="513.46 312.51 573.77 347 649.49 303.57 724.77 260.57 724.77 190.74 513.46 312.51"/><polygon class="cls-1" points="573.77 0 528.86 25.97 589.17 60.46 634.09 34.91 573.77 0"/><polygon class="cls-1" points="725.2 86.86 725.2 121.34 453.57 277.6 423.2 260.57 423.2 86.86 494.21 45.98 552.39 81.75 488.22 118.79 483.52 121.34 483.52 190.74 694.83 69.4 725.2 86.86"/><path class="cls-1" d="M714,1725.52a9.79,9.79,0,0,1-1-2.08,10.09,10.09,0,0,1-.32-2.56,10.29,10.29,0,0,1,.4-2.8,7.32,7.32,0,0,1,4.16-4.4,10.7,10.7,0,0,1,7.92.08,7.12,7.12,0,0,1,2.8,2.16.58.58,0,0,1,0,.8l-2.08,1.92c-.21.21-.37.32-.48.32a.49.49,0,0,1-.32-.16,5.07,5.07,0,0,0-3.84-1.84,3.71,3.71,0,0,0-2.88,1.12,4.27,4.27,0,0,0-1,2.88,4.6,4.6,0,0,0,.8,2.72,8.45,8.45,0,0,0,1.76,1.84H728c.32,0,.48.18.48.56V1729c0,.37-.16.56-.48.56h-17c-.32,0-.48-.19-.48-.56v-2.88c0-.38.16-.56.48-.56Zm10.4-19a.71.71,0,0,1-.8.8H716.2a.71.71,0,0,1-.8-.8v-52.8a.71.71,0,0,1,.8-.8h7.44a.71.71,0,0,1,.8.8Zm-35,16.16a.71.71,0,0,1-.8-.8V1715a.71.71,0,0,1,.8-.8h6.72a.71.71,0,0,1,.8.8v6.88a.71.71,0,0,1-.8.8Zm10.4,0a.71.71,0,0,1-.8-.8V1715a.71.71,0,0,1,.8-.8h6.72a.71.71,0,0,1,.8.8v6.88a.71.71,0,0,1-.8.8Zm-13.44-15.36a3.48,3.48,0,0,1-2.4-.72,4.21,4.21,0,0,1-.8-3,5.2,5.2,0,0,1,.8-3.28,2.81,2.81,0,0,1,2.4-1h5.2a4,4,0,0,0,2.88-.88,4.68,4.68,0,0,0,1-3.36V1675a.71.71,0,0,1,.8-.8h7.44a.71.71,0,0,1,.8.8v22.32q0,5.19-2.16,7.68t-7.2,2.4Zm-9.12-4.08a6.19,6.19,0,0,1-3.44,3.2,17.23,17.23,0,0,1-6.08.88h-7.44a3.48,3.48,0,0,1-2.4-.72,4.31,4.31,0,0,1-.8-3,4.77,4.77,0,0,1,.8-3.2,2.81,2.81,0,0,1,2.4-1h5.2a4.66,4.66,0,0,0,2.16-.4,2.63,2.63,0,0,0,1.12-1.36,7.71,7.71,0,0,0,.48-2.4c0-1,.08-2.24.08-3.68V1675a.61.61,0,0,1,.4-.64,2.93,2.93,0,0,1,1-.16h6.88a.71.71,0,0,1,.8.8v19.52a4.26,4.26,0,0,0,1.76,3.68,8.39,8.39,0,0,0,4.88,1.28h1.36a3.09,3.09,0,0,1,2.4.88,4.37,4.37,0,0,1,.8,3,4.86,4.86,0,0,1-.8,3.2,3,3,0,0,1-2.4.88,18.39,18.39,0,0,1-5.44-.72A6.62,6.62,0,0,1,677.33,1703.28Zm-6.72-47.44a.71.71,0,0,1-.8-.8v-6.88a.7.7,0,0,1,.8-.8h6.72a.71.71,0,0,1,.8.8V1655a.71.71,0,0,1-.8.8Zm-5.12,10.32a.71.71,0,0,1-.8-.8v-6.88a.7.7,0,0,1,.8-.8h6.72a.71.71,0,0,1,.8.8v6.88a.71.71,0,0,1-.8.8Zm10.4,0a.71.71,0,0,1-.8-.8v-6.88a.7.7,0,0,1,.8-.8h6.72a.71.71,0,0,1,.8.8v6.88a.71.71,0,0,1-.8.8Zm-25.53,41.2a2.48,2.48,0,0,1-2.16-.8,4.94,4.94,0,0,1-.64-3,6.56,6.56,0,0,1,.56-3.28,2.45,2.45,0,0,1,2.24-.88H660a3.09,3.09,0,0,1,2.4.88,4.52,4.52,0,0,1,.8,3c0,1.65-.27,2.74-.8,3.28a3.31,3.31,0,0,1-2.4.72Zm-9.61,0a2.48,2.48,0,0,1-2.16-.8,4.94,4.94,0,0,1-.64-3,6.68,6.68,0,0,1,.56-3.28,2.45,2.45,0,0,1,2.24-.88h9.6a3.06,3.06,0,0,1,2.4.88,4.52,4.52,0,0,1,.8,3c0,1.65-.27,2.74-.8,3.28a3.31,3.31,0,0,1-2.4.72Zm-9.61,0a2.48,2.48,0,0,1-2.16-.8,4.94,4.94,0,0,1-.64-3,6.68,6.68,0,0,1,.56-3.28,2.45,2.45,0,0,1,2.24-.88h9.6a3.06,3.06,0,0,1,2.4.88,4.52,4.52,0,0,1,.8,3c0,1.65-.27,2.74-.8,3.28a3.31,3.31,0,0,1-2.4.72Zm-9.61,0a2.48,2.48,0,0,1-2.16-.8,4.94,4.94,0,0,1-.64-3,6.68,6.68,0,0,1,.56-3.28,2.45,2.45,0,0,1,2.24-.88h9.6a3.06,3.06,0,0,1,2.4.88,4.52,4.52,0,0,1,.8,3c0,1.65-.27,2.74-.8,3.28a3.31,3.31,0,0,1-2.4.72Zm-9.61,0a2.48,2.48,0,0,1-2.16-.8,4.94,4.94,0,0,1-.64-3,6.68,6.68,0,0,1,.56-3.28,2.45,2.45,0,0,1,2.24-.88h9.6a3.06,3.06,0,0,1,2.4.88,4.52,4.52,0,0,1,.8,3c0,1.65-.27,2.74-.8,3.28a3.31,3.31,0,0,1-2.4.72Zm-9.61,0a2.48,2.48,0,0,1-2.16-.8,4.94,4.94,0,0,1-.64-3,6.68,6.68,0,0,1,.56-3.28,2.45,2.45,0,0,1,2.24-.88h9.6a3.06,3.06,0,0,1,2.4.88,4.52,4.52,0,0,1,.8,3c0,1.65-.27,2.74-.8,3.28a3.31,3.31,0,0,1-2.4.72Zm-9.61,0a2.48,2.48,0,0,1-2.16-.8,4.94,4.94,0,0,1-.64-3,6.68,6.68,0,0,1,.56-3.28,2.45,2.45,0,0,1,2.24-.88h9.6a3.06,3.06,0,0,1,2.4.88,4.52,4.52,0,0,1,.8,3c0,1.65-.27,2.74-.8,3.28a3.31,3.31,0,0,1-2.4.72Zm-9.61,0a2.5,2.5,0,0,1-2.16-.8,5,5,0,0,1-.64-3,6.68,6.68,0,0,1,.56-3.28,2.46,2.46,0,0,1,2.24-.88h9.6a3.06,3.06,0,0,1,2.4.88,4.47,4.47,0,0,1,.8,3c0,1.65-.26,2.74-.8,3.28a3.31,3.31,0,0,1-2.4.72Zm-9.61,0a2.5,2.5,0,0,1-2.16-.8,5,5,0,0,1-.64-3,6.68,6.68,0,0,1,.56-3.28,2.46,2.46,0,0,1,2.24-.88h9.6a3.06,3.06,0,0,1,2.4.88,4.47,4.47,0,0,1,.8,3c0,1.65-.26,2.74-.8,3.28a3.31,3.31,0,0,1-2.4.72Zm-9.61,0a2.5,2.5,0,0,1-2.16-.8,5,5,0,0,1-.64-3,6.68,6.68,0,0,1,.56-3.28,2.46,2.46,0,0,1,2.24-.88h9.6a3.06,3.06,0,0,1,2.4.88,4.47,4.47,0,0,1,.8,3c0,1.65-.26,2.74-.8,3.28a3.31,3.31,0,0,1-2.4.72Zm-9.61,0a2.5,2.5,0,0,1-2.16-.8,5,5,0,0,1-.64-3,6.68,6.68,0,0,1,.56-3.28,2.46,2.46,0,0,1,2.24-.88h9.6a3.06,3.06,0,0,1,2.4.88,4.47,4.47,0,0,1,.8,3c0,1.65-.26,2.74-.8,3.28a3.31,3.31,0,0,1-2.4.72Zm-9.61,0a2.5,2.5,0,0,1-2.16-.8,5,5,0,0,1-.64-3,6.68,6.68,0,0,1,.56-3.28,2.46,2.46,0,0,1,2.24-.88h9.6a3.06,3.06,0,0,1,2.4.88,4.47,4.47,0,0,1,.8,3c0,1.65-.26,2.74-.8,3.28a3.31,3.31,0,0,1-2.4.72Zm-9.6,0a2.48,2.48,0,0,1-2.16-.8,4.94,4.94,0,0,1-.64-3,6.56,6.56,0,0,1,.56-3.28,2.45,2.45,0,0,1,2.24-.88h9.6a3.09,3.09,0,0,1,2.4.88,4.52,4.52,0,0,1,.8,3c0,1.65-.27,2.74-.8,3.28a3.31,3.31,0,0,1-2.4.72Zm-9.61,0a2.48,2.48,0,0,1-2.16-.8,4.94,4.94,0,0,1-.64-3,6.56,6.56,0,0,1,.56-3.28,2.45,2.45,0,0,1,2.24-.88H535a3.09,3.09,0,0,1,2.4.88,4.52,4.52,0,0,1,.8,3c0,1.65-.27,2.74-.8,3.28a3.31,3.31,0,0,1-2.4.72Zm-9.61,0a2.48,2.48,0,0,1-2.16-.8,4.94,4.94,0,0,1-.64-3,6.56,6.56,0,0,1,.56-3.28,2.45,2.45,0,0,1,2.24-.88h9.6a3.09,3.09,0,0,1,2.4.88,4.52,4.52,0,0,1,.8,3c0,1.65-.27,2.74-.8,3.28a3.31,3.31,0,0,1-2.4.72Zm-9.61,0a2.48,2.48,0,0,1-2.16-.8,4.94,4.94,0,0,1-.64-3,6.56,6.56,0,0,1,.56-3.28,2.45,2.45,0,0,1,2.24-.88h9.6a3.09,3.09,0,0,1,2.4.88,4.52,4.52,0,0,1,.8,3c0,1.65-.27,2.74-.8,3.28a3.31,3.31,0,0,1-2.4.72Zm-9.61,0a2.48,2.48,0,0,1-2.16-.8,4.94,4.94,0,0,1-.64-3,6.56,6.56,0,0,1,.56-3.28,2.45,2.45,0,0,1,2.24-.88h9.6a3.09,3.09,0,0,1,2.4.88,4.52,4.52,0,0,1,.8,3c0,1.65-.27,2.74-.8,3.28a3.31,3.31,0,0,1-2.4.72Zm-9.61,0a2.48,2.48,0,0,1-2.16-.8,4.94,4.94,0,0,1-.64-3,6.68,6.68,0,0,1,.56-3.28,2.45,2.45,0,0,1,2.24-.88h9.6a3.06,3.06,0,0,1,2.4.88,4.52,4.52,0,0,1,.8,3c0,1.65-.27,2.74-.8,3.28a3.31,3.31,0,0,1-2.4.72Zm-9.61,0a2.48,2.48,0,0,1-2.16-.8,4.94,4.94,0,0,1-.64-3,6.68,6.68,0,0,1,.56-3.28,2.45,2.45,0,0,1,2.24-.88H487a3.06,3.06,0,0,1,2.4.88,4.52,4.52,0,0,1,.8,3c0,1.65-.27,2.74-.8,3.28a3.31,3.31,0,0,1-2.4.72Zm-9.61,0a2.48,2.48,0,0,1-2.16-.8,4.94,4.94,0,0,1-.64-3,6.68,6.68,0,0,1,.56-3.28,2.45,2.45,0,0,1,2.24-.88h9.6a3.06,3.06,0,0,1,2.4.88,4.52,4.52,0,0,1,.8,3c0,1.65-.27,2.74-.8,3.28a3.31,3.31,0,0,1-2.4.72Zm-9.61,0a2.48,2.48,0,0,1-2.16-.8,4.94,4.94,0,0,1-.64-3,6.68,6.68,0,0,1,.56-3.28,2.45,2.45,0,0,1,2.24-.88h9.6a3.06,3.06,0,0,1,2.4.88,4.52,4.52,0,0,1,.8,3c0,1.65-.27,2.74-.8,3.28a3.31,3.31,0,0,1-2.4.72Zm-9.61,0a2.48,2.48,0,0,1-2.16-.8,4.94,4.94,0,0,1-.64-3,6.68,6.68,0,0,1,.56-3.28,2.45,2.45,0,0,1,2.24-.88h9.6a3.06,3.06,0,0,1,2.4.88,4.52,4.52,0,0,1,.8,3c0,1.65-.27,2.74-.8,3.28a3.31,3.31,0,0,1-2.4.72Zm-9.61,0a2.48,2.48,0,0,1-2.16-.8,4.94,4.94,0,0,1-.64-3,6.68,6.68,0,0,1,.56-3.28,2.45,2.45,0,0,1,2.24-.88h9.6a3.06,3.06,0,0,1,2.4.88,4.52,4.52,0,0,1,.8,3c0,1.65-.27,2.74-.8,3.28a3.31,3.31,0,0,1-2.4.72Zm-9.61,0a2.5,2.5,0,0,1-2.16-.8,5,5,0,0,1-.64-3,6.68,6.68,0,0,1,.56-3.28,2.46,2.46,0,0,1,2.24-.88h9.6a3.06,3.06,0,0,1,2.4.88,4.47,4.47,0,0,1,.8,3c0,1.65-.26,2.74-.8,3.28a3.31,3.31,0,0,1-2.4.72Zm-15.66-53.6a.71.71,0,0,1,.8-.8h7.44a.7.7,0,0,1,.8.8v41.44a5,5,0,0,0,.88,3.36,4.31,4.31,0,0,0,3,.88h2.8a2.94,2.94,0,0,1,2.4,1,4.61,4.61,0,0,1,.8,3.12c0,1.65-.26,2.72-.8,3.2a3.63,3.63,0,0,1-2.4.64H423q-5,0-7.2-2.4t-2.16-7.68Zm-35,12.4a.71.71,0,0,1-.8-.8v-6.88a.71.71,0,0,1,.8-.8h6.72a.7.7,0,0,1,.8.8v6.88a.71.71,0,0,1-.8.8Zm10.4,0a.71.71,0,0,1-.8-.8v-6.88a.71.71,0,0,1,.8-.8h6.72a.7.7,0,0,1,.8.8v6.88a.71.71,0,0,1-.8.8Zm-1.92,14.56a6.7,6.7,0,0,0-5.6,2.56,11.31,11.31,0,0,0-2,7.12c0,3.36.7,5.7,2.08,7a8.11,8.11,0,0,0,5.84,2h7.12v-9.12q0-4.72-1.84-7.12A6.49,6.49,0,0,0,387.13,1680.72Zm16.4,31a11.31,11.31,0,0,1-1,4.64,8.93,8.93,0,0,1-2.8,3.68,13.65,13.65,0,0,1-5,2.48,24.61,24.61,0,0,1-7.36,1H368q-10.39,0-15.52-4.8t-5-13a26,26,0,0,1,.4-4.48,34.85,34.85,0,0,1,1.2-4.4,35.45,35.45,0,0,1,1.6-4,24.65,24.65,0,0,1,2-3.36c.27-.43.64-.48,1.12-.16l6.32,3.28a.66.66,0,0,1,.24,1,36.54,36.54,0,0,0-2.56,5.2,17.18,17.18,0,0,0-1.12,6.08,11,11,0,0,0,1,5,9.39,9.39,0,0,0,2.88,3.2,11.25,11.25,0,0,0,4,1.68,19,19,0,0,0,4.56.56h17.2q4.8,0,6.56-1.2a3.69,3.69,0,0,0,1.76-3.2v-3.6h-8.16q-7.44,0-11.6-3.84t-4.16-13a23.3,23.3,0,0,1,1.28-8.24,14.79,14.79,0,0,1,3.6-5.52,13.39,13.39,0,0,1,5.2-3.12,20.16,20.16,0,0,1,6.24-1,21.63,21.63,0,0,1,6.56,1,13,13,0,0,1,5.2,3,13.22,13.22,0,0,1,3.44,5.52,23.08,23.08,0,0,1,1.28,8.24Z" transform="translate(-347.45 -1577.36)"/><path class="cls-1" d="M712.71,1762.08c-3,0-5.21,1-6.55,3.09s-2,4.83-2,8.43q0,5.69,2,8.49c1.34,1.83,3.53,2.74,6.55,2.74s5.21-.91,6.55-2.74,2.09-4.7,2.09-8.49c0-3.56-.7-6.36-2.09-8.43S715.73,1762.08,712.71,1762.08Zm0,26.78a17.3,17.3,0,0,1-5.83-.94,8.71,8.71,0,0,1-4.18-3.09,5.73,5.73,0,0,1-3,3,11.89,11.89,0,0,1-3.75.58h-4.24a5,5,0,0,1-2.16-.36q-.72-.36-.72-1.59c0-1,.24-1.53.72-1.73a4.72,4.72,0,0,1,2.16-.36h4a4.66,4.66,0,0,0,1.58-.28,3.65,3.65,0,0,0,1.44-1,6.74,6.74,0,0,0,1.08-2,9.35,9.35,0,0,0,.43-3.09c0-.58-.09-1.18-.14-1.8v-2q0-16,12.67-16.06,6.27,0,9.43,3.82t3.24,11.52q0,8-3.24,11.74T712.71,1788.86Zm-35.51-36.58a.64.64,0,0,1-.72-.72v-4.32a.64.64,0,0,1,.72-.72h2.88a.64.64,0,0,1,.72.72v4.32a.64.64,0,0,1-.72.72Zm3.46,26.64a4.75,4.75,0,0,0,1.87,4.11,9.08,9.08,0,0,0,5.11,1.29h.43a4.25,4.25,0,0,1,2.16.44,1.52,1.52,0,0,1,.72,1.51,1.93,1.93,0,0,1-.65,1.65,4.17,4.17,0,0,1-2.23.44,18.25,18.25,0,0,1-5.18-.65,5.18,5.18,0,0,1-3.17-3.17,7.86,7.86,0,0,1-2.3,2.81,7.29,7.29,0,0,1-4.18,1H667.7a4.79,4.79,0,0,1-2.09-.36,1.65,1.65,0,0,1-.79-1.59,1.76,1.76,0,0,1,.72-1.65,4.25,4.25,0,0,1,2.16-.44h5.11A5.33,5.33,0,0,0,675,1784a2.29,2.29,0,0,0,1.15-1.08,5.51,5.51,0,0,0,.43-1.94,20.92,20.92,0,0,0,.15-2.66v-18.22a.64.64,0,0,1,.72-.72h2.52a.64.64,0,0,1,.72.72Zm-23.82-4c0,.77,0,1.49-.08,2.16v1.8a4.76,4.76,0,0,0,1.88,4.11,9.08,9.08,0,0,0,5.11,1.29h.36a5,5,0,0,1,2.16.36c.48.2.72.72.72,1.59s-.24,1.49-.72,1.73a4.72,4.72,0,0,1-2.16.36,16.54,16.54,0,0,1-5.55-.87,5,5,0,0,1-3.16-3.53,6.88,6.88,0,0,1-1.88,2.45,7.88,7.88,0,0,1-2.8,1.3,18.78,18.78,0,0,1-3.75.57c-1.39,0-3,.08-4.68.08H623.43a13.82,13.82,0,0,1-2.31-.22,4.89,4.89,0,0,1-1.87-.65,5.93,5.93,0,0,1-2.45.72,25.58,25.58,0,0,1-2.8.15h-4.47a4.25,4.25,0,0,1-2.16-.44,1.61,1.61,0,0,1-.72-1.51,1.76,1.76,0,0,1,.72-1.65,4,4,0,0,1,2.16-.44h5.33c1.73,0,2.78-.48,3.17-1.44a13.82,13.82,0,0,0,.57-4.68v-17.85a.64.64,0,0,1,.72-.72h2.52a.64.64,0,0,1,.72.72v2.59a46.88,46.88,0,0,1,8.14-3.46A30.5,30.5,0,0,1,640,1758q8.49,0,12.67,4.32T656.84,1775Zm-12.68,9.36a30.21,30.21,0,0,0,3.89-.21,5,5,0,0,0,2.59-1.23,5.68,5.68,0,0,0,1.44-2.88,23.5,23.5,0,0,0,.44-5.11,22.9,22.9,0,0,0-.58-5.33,9.42,9.42,0,0,0-2-4,8.55,8.55,0,0,0-3.74-2.52,16.26,16.26,0,0,0-5.9-.93,23.59,23.59,0,0,0-4.83.5,39.93,39.93,0,0,0-4.68,1.15,38.71,38.71,0,0,0-4.39,1.66c-1.39.62-2.66,1.22-3.82,1.8v13.32a14.49,14.49,0,0,1-.43,3.81Zm-63.4-34.92a.64.64,0,0,1-.72-.72v-4.32a.64.64,0,0,1,.72-.72h3.74a.64.64,0,0,1,.72.72v4.32a.64.64,0,0,1-.72.72Zm9.21,0a.64.64,0,0,1-.72-.72v-4.32a.64.64,0,0,1,.72-.72h3.75a.64.64,0,0,1,.72.72v4.32a.64.64,0,0,1-.72.72Zm-3.16,31.54q4.61,0,6.33-2.09a8.67,8.67,0,0,0,1.73-5.69v-11.08h-7.7a8.52,8.52,0,0,0-6.2,2.23c-1.48,1.49-2.23,4.13-2.23,7.92q0,4.61,2,6.69A8.34,8.34,0,0,0,586.81,1780.94Zm8.06-22.9V1755a.64.64,0,0,1,.72-.72h2.52a.64.64,0,0,1,.72.72v25.56a4.45,4.45,0,0,0,.79,3,3.86,3.86,0,0,0,2.67.79H606a4.25,4.25,0,0,1,2.16.44,1.76,1.76,0,0,1,.72,1.65c0,1-.24,1.54-.72,1.73a7.67,7.67,0,0,1-2.16.22h-3.89a16.17,16.17,0,0,1-2.59-.22,6.89,6.89,0,0,1-2.31-.94,4.81,4.81,0,0,1-1.65-1.87,6.76,6.76,0,0,1-.65-3.17,9.54,9.54,0,0,1-3.24,2.09,15,15,0,0,1-5.11.72,12,12,0,0,1-8.64-3.09q-3.17-3.18-3.17-9.65a19.73,19.73,0,0,1,.94-6.55,11.47,11.47,0,0,1,2.73-4.4,10.22,10.22,0,0,1,4.18-2.44,17.16,17.16,0,0,1,5.33-.8Zm-71.62-5.76a.64.64,0,0,1-.72-.72v-4.32a.64.64,0,0,1,.72-.72H527a.64.64,0,0,1,.72.72v4.32a.64.64,0,0,1-.72.72Zm9.22,0a.64.64,0,0,1-.72-.72v-4.32a.64.64,0,0,1,.72-.72h3.74a.64.64,0,0,1,.72.72v4.32a.64.64,0,0,1-.72.72Zm-2.59,9.8a7.36,7.36,0,0,0-6.41,3,13.14,13.14,0,0,0-2.16,7.92q0,5.91,2,8.64c1.34,1.78,3.52,2.66,6.55,2.66s5.21-.84,6.55-2.52,2.09-4.41,2.09-8.2c0-3.56-.7-6.36-2.09-8.43S532.9,1762.08,529.88,1762.08Zm-20.16,26.28a4.72,4.72,0,0,1-2.16-.36c-.48-.29-.72-.92-.72-1.88a1.37,1.37,0,0,1,.72-1.36,4.25,4.25,0,0,1,2.16-.44H519.8a17.8,17.8,0,0,1-1.95-4.68,26.8,26.8,0,0,1-.64-6.26q0-7.71,3.45-11.52a12,12,0,0,1,9.22-3.82q12.68,0,12.67,15.34,0,8-3.24,11.52t-9.43,3.46Zm-14.87-48.24a.64.64,0,0,1,.72-.72h2.52a.64.64,0,0,1,.72.72v40.39a4,4,0,0,0,.94,3,4.13,4.13,0,0,0,2.74.79h3.6c1.92,0,2.88.68,2.88,2,0,1-.24,1.54-.72,1.73a5.88,5.88,0,0,1-2.16.29h-2.81q-4.54,0-6.48-1.8t-1.95-6ZM477,1752.28a.64.64,0,0,1-.72-.72v-4.32a.64.64,0,0,1,.72-.72h2.88a.64.64,0,0,1,.72.72v4.32a.64.64,0,0,1-.72.72Zm-9.51,36.08a5,5,0,0,1-2.16-.36q-.72-.36-.72-1.59c0-.91.24-1.49.72-1.73a4.72,4.72,0,0,1,2.16-.36h5.26a3.86,3.86,0,0,0,2.73-.86,3.69,3.69,0,0,0,1-3v-20.45a.64.64,0,0,1,.72-.72h2.52a.64.64,0,0,1,.72.72v19.22a20.07,20.07,0,0,1-.36,4,6.69,6.69,0,0,1-1.29,2.88,5.89,5.89,0,0,1-2.6,1.65,13.91,13.91,0,0,1-4.17.51Zm-21.19-26.28a7.82,7.82,0,0,0-6.4,3q-2.39,3-2.38,9a19.81,19.81,0,0,0,.5,4.82,7.74,7.74,0,0,0,1.73,3.17,7.19,7.19,0,0,0,2.88,1.73,14.33,14.33,0,0,0,4,.5h8.14v-10.65c0-3.7-.65-6.55-1.94-8.57S449.39,1762.08,446.31,1762.08Zm-7.2,40.39a.64.64,0,0,1-.72-.72v-2.59a.64.64,0,0,1,.72-.72h8.79a8.41,8.41,0,0,0,5.18-1.3q1.73-1.29,1.73-5.18v-3.6h-8.14a19.37,19.37,0,0,1-5.47-.72,9.81,9.81,0,0,1-6.91-6.77,22.19,22.19,0,0,1-.94-6.91,21.14,21.14,0,0,1,1-6.84,14,14,0,0,1,2.74-5,11.92,11.92,0,0,1,4.1-3,12.23,12.23,0,0,1,5.11-1.08q6.42,0,9.44,3.82t3.09,11.66v10.8h5a5,5,0,0,1,2.16.36,1.45,1.45,0,0,1,.72,1.44c0,1-.24,1.59-.72,1.88a4.72,4.72,0,0,1-2.16.36h-5v3.52q0,5.63-2.37,8.07t-7.35,2.52Zm-22.88-50.19a.64.64,0,0,1-.72-.72v-4.32a.64.64,0,0,1,.72-.72h2.88a.64.64,0,0,1,.72.72v4.32a.64.64,0,0,1-.72.72Zm-9.51,36.08a5,5,0,0,1-2.16-.36q-.72-.36-.72-1.59c0-.91.24-1.49.72-1.73a4.78,4.78,0,0,1,2.16-.36H412a3.9,3.9,0,0,0,2.74-.86,3.72,3.72,0,0,0,1-3v-20.45a.64.64,0,0,1,.72-.72H419a.64.64,0,0,1,.72.72v19.22a20.07,20.07,0,0,1-.36,4,6.69,6.69,0,0,1-1.29,2.88,5.91,5.91,0,0,1-2.59,1.65,14,14,0,0,1-4.18.51Zm-20.6,11.8a.64.64,0,0,1-.72-.72v-4.32a.64.64,0,0,1,.72-.72h3.75a.64.64,0,0,1,.72.72v4.32a.64.64,0,0,1-.72.72Zm9.22,0a.64.64,0,0,1-.72-.72v-4.32a.64.64,0,0,1,.72-.72h3.74a.64.64,0,0,1,.72.72v4.32a.64.64,0,0,1-.72.72Zm.36-21.24a4.75,4.75,0,0,0,1.87,4.11,9.11,9.11,0,0,0,5.11,1.29h.44a4.25,4.25,0,0,1,2.16.44,1.52,1.52,0,0,1,.72,1.51,2,2,0,0,1-.65,1.65,4.2,4.2,0,0,1-2.23.44,18.28,18.28,0,0,1-5.19-.65,5.2,5.2,0,0,1-3.17-3.17,7.76,7.76,0,0,1-2.3,2.81,7.27,7.27,0,0,1-4.18,1h-5.83a3.84,3.84,0,0,1-1.94-.36,1.78,1.78,0,0,1-.65-1.59,1.93,1.93,0,0,1,.58-1.65,3.43,3.43,0,0,1,2-.44h5.4A5.33,5.33,0,0,0,390,1784a2.29,2.29,0,0,0,1.15-1.08,5.5,5.5,0,0,0,.44-1.94,23.12,23.12,0,0,0,.14-2.66v-18.22a.64.64,0,0,1,.72-.72H395a.64.64,0,0,1,.72.72Zm-42-29.52a.64.64,0,0,1-.72-.72v-4.32a.64.64,0,0,1,.72-.72h3.74a.64.64,0,0,1,.72.72v4.32a.64.64,0,0,1-.72.72Zm9.21,0a.64.64,0,0,1-.72-.72v-4.32a.64.64,0,0,1,.72-.72h3.75a.64.64,0,0,1,.72.72v4.32a.64.64,0,0,1-.72.72Zm-3.17,31.54q4.62,0,6.34-2.09a8.67,8.67,0,0,0,1.73-5.69v-11.08h-7.71a8.52,8.52,0,0,0-6.19,2.23q-2.24,2.24-2.23,7.92,0,4.61,2,6.69A8.32,8.32,0,0,0,359.72,1780.94Zm8.07-22.9V1755a.64.64,0,0,1,.72-.72H371a.64.64,0,0,1,.72.72v25.56a4.45,4.45,0,0,0,.79,3,3.83,3.83,0,0,0,2.66.79h3.68a4.25,4.25,0,0,1,2.16.44,1.76,1.76,0,0,1,.72,1.65c0,1-.24,1.54-.72,1.73a7.77,7.77,0,0,1-2.16.22H375a16.07,16.07,0,0,1-2.59-.22,6.81,6.81,0,0,1-2.31-.94,4.81,4.81,0,0,1-1.65-1.87,6.64,6.64,0,0,1-.65-3.17,9.74,9.74,0,0,1-3.24,2.09,15,15,0,0,1-5.11.72,12,12,0,0,1-8.64-3.09q-3.18-3.18-3.17-9.65a20,20,0,0,1,.93-6.55,11.6,11.6,0,0,1,2.74-4.4,10.22,10.22,0,0,1,4.18-2.44,17.1,17.1,0,0,1,5.32-.8Z" transform="translate(-347.45 -1577.36)"/><path class="cls-1" d="M725.66,1818.76v29.6H722v-29.6Zm-12.11,18.6a8.84,8.84,0,0,0-1-4.32,6.86,6.86,0,0,0-2.72-2.8,7.11,7.11,0,0,0-3.72-1,7.36,7.36,0,0,0-3.72,1,7,7,0,0,0-2.68,2.8,8.84,8.84,0,0,0-1,4.32,9.22,9.22,0,0,0,1,4.4,7.41,7.41,0,0,0,10.12,2.84,7.22,7.22,0,0,0,2.72-2.84A9.14,9.14,0,0,0,713.55,1837.36Zm-18.56,0a12.16,12.16,0,0,1,1.36-5.88,9.88,9.88,0,0,1,3.72-4,10.29,10.29,0,0,1,5.32-1.4,9.69,9.69,0,0,1,5,1.24,8.17,8.17,0,0,1,3.16,3.12v-4h3.68v21.92h-3.68v-4.08a8.73,8.73,0,0,1-3.24,3.2,9.71,9.71,0,0,1-5,1.24,9.92,9.92,0,0,1-5.28-1.44,10.17,10.17,0,0,1-3.72-4A12.57,12.57,0,0,1,695,1837.32Zm-7.11,0a9,9,0,0,0-1-4.32,6.93,6.93,0,0,0-2.72-2.8,7.11,7.11,0,0,0-3.72-1,7.36,7.36,0,0,0-3.72,1A6.9,6.9,0,0,0,674,1833a8.84,8.84,0,0,0-1,4.32,9.22,9.22,0,0,0,1,4.4,7.27,7.27,0,0,0,2.68,2.84,7.3,7.3,0,0,0,10.16-2.84A9.25,9.25,0,0,0,687.88,1837.36Zm-8.16-11.28a9.64,9.64,0,0,1,5,1.24,8.15,8.15,0,0,1,3.2,3.12v-4h3.68v22.4a10.88,10.88,0,0,1-1.28,5.32,9.12,9.12,0,0,1-3.68,3.68,11.16,11.16,0,0,1-5.52,1.32,12.15,12.15,0,0,1-7.2-2,8,8,0,0,1-3.4-5.56h3.6a5.63,5.63,0,0,0,2.48,3.2,8.07,8.07,0,0,0,4.52,1.24,6.63,6.63,0,0,0,4.88-1.88,7.07,7.07,0,0,0,1.92-5.28v-4.6a8.84,8.84,0,0,1-3.2,3.2,9.47,9.47,0,0,1-5,1.28,10.13,10.13,0,0,1-5.32-1.44,10,10,0,0,1-3.72-4,12.57,12.57,0,0,1-1.36-5.92,12.16,12.16,0,0,1,1.36-5.88,9.75,9.75,0,0,1,3.72-4A10.29,10.29,0,0,1,679.72,1826.08Zm-16.25,9.72a6.53,6.53,0,0,0-.92-3.56A5.68,5.68,0,0,0,660,1830a7.43,7.43,0,0,0-3.48-.8,6.79,6.79,0,0,0-4.72,1.76,7.22,7.22,0,0,0-2.2,4.88Zm3.76.76a21.57,21.57,0,0,1-.12,2.2H649.59a6.83,6.83,0,0,0,7.12,6.88,6.71,6.71,0,0,0,3.92-1.08,5.88,5.88,0,0,0,2.24-3h3.92a9.53,9.53,0,0,1-3.52,5.16,10.73,10.73,0,0,1-6.56,2,11.24,11.24,0,0,1-5.6-1.4,10.16,10.16,0,0,1-3.84-4,13.65,13.65,0,0,1,0-12,9.45,9.45,0,0,1,3.8-3.92,11.31,11.31,0,0,1,5.68-1.4,11,11,0,0,1,5.52,1.36,9.19,9.19,0,0,1,3.68,3.76A10.78,10.78,0,0,1,667.23,1836.56Zm-24.84-17.8v29.6h-3.64v-29.6ZM616,1826a9.43,9.43,0,0,1,4.56,1.08,7.41,7.41,0,0,1,3.16,3.16,10.52,10.52,0,0,1,1.16,5.16v12.92h-3.6V1836a6.93,6.93,0,0,0-1.64-5,5.57,5.57,0,0,0-4.36-1.76,5.81,5.81,0,0,0-4.52,1.84,7.4,7.4,0,0,0-1.68,5.24v12.08h-3.6V1836a6.93,6.93,0,0,0-1.64-5,5.57,5.57,0,0,0-4.36-1.76,5.81,5.81,0,0,0-4.52,1.84,7.4,7.4,0,0,0-1.68,5.24v12.08h-3.64v-21.92h3.64v3.16a7.18,7.18,0,0,1,2.88-2.64,8.85,8.85,0,0,1,4-.92,9.44,9.44,0,0,1,4.88,1.24,7.49,7.49,0,0,1,3.16,3.64,7.21,7.21,0,0,1,3-3.6A8.92,8.92,0,0,1,616,1826Zm-36.28,4a7,7,0,0,1,2.72-2.92,8.53,8.53,0,0,1,4.36-1v3.76h-1q-6.12,0-6.12,6.64v11.92H576v-21.92h3.64Zm-18.3,15.52a7.75,7.75,0,0,0,3.68-.92,7,7,0,0,0,2.76-2.76,8.72,8.72,0,0,0,1.08-4.48,9,9,0,0,0-1-4.48,6.65,6.65,0,0,0-2.72-2.72,7.74,7.74,0,0,0-7.32,0,6.37,6.37,0,0,0-2.64,2.72,9.21,9.21,0,0,0-1,4.48,9.71,9.71,0,0,0,1,4.52,6.77,6.77,0,0,0,2.64,2.76A7.55,7.55,0,0,0,561.37,1845.52Zm0,3.2a11.35,11.35,0,0,1-5.6-1.4,10.22,10.22,0,0,1-3.92-4,12.42,12.42,0,0,1-1.4-6,11.85,11.85,0,0,1,1.44-5.92,9.9,9.9,0,0,1,4-4,12.06,12.06,0,0,1,11.28,0,9.77,9.77,0,0,1,4,3.92,12.67,12.67,0,0,1,0,12,10.45,10.45,0,0,1-4,4A11.69,11.69,0,0,1,561.37,1848.72Zm-12.45-19.28h-4.6v18.92h-3.64v-18.92h-2.84v-3h2.84v-1.56c0-2.46.63-4.24,1.88-5.36s3.32-1.72,6.12-1.72v3a4.85,4.85,0,0,0-3.4,1,4.13,4.13,0,0,0-1,3.08v1.56h4.6Zm-17.69,0v12.92a3.19,3.19,0,0,0,.68,2.28,3.45,3.45,0,0,0,2.36.64H537v3.08h-3.28a6.53,6.53,0,0,1-4.56-1.4q-1.51-1.41-1.52-4.6v-12.92h-2.84v-3h2.84v-5.52h3.64v5.52H537v3Zm-12.91,7.92a8.84,8.84,0,0,0-1-4.32,6.86,6.86,0,0,0-2.72-2.8,7.11,7.11,0,0,0-3.72-1,7.36,7.36,0,0,0-3.72,1,7,7,0,0,0-2.68,2.8,8.84,8.84,0,0,0-1,4.32,9.22,9.22,0,0,0,1,4.4,7.41,7.41,0,0,0,10.12,2.84,7.22,7.22,0,0,0,2.72-2.84A9.14,9.14,0,0,0,518.32,1837.36Zm-18.56,0a12.16,12.16,0,0,1,1.36-5.88,9.88,9.88,0,0,1,3.72-4,10.29,10.29,0,0,1,5.32-1.4,9.69,9.69,0,0,1,5,1.24,8.17,8.17,0,0,1,3.16,3.12v-4H522v21.92h-3.68v-4.08a8.73,8.73,0,0,1-3.24,3.2,9.71,9.71,0,0,1-5,1.24,9.92,9.92,0,0,1-5.28-1.44,10.17,10.17,0,0,1-3.72-4A12.57,12.57,0,0,1,499.76,1837.32Zm-3.48-18.56v29.6h-3.64v-29.6Zm-10.79,18.56a9,9,0,0,0-1-4.32,6.93,6.93,0,0,0-2.72-2.8,7.36,7.36,0,0,0-3.72-1,7.21,7.21,0,0,0-3.72,1,7.1,7.1,0,0,0-2.72,2.84,8.76,8.76,0,0,0-1,4.28,9.14,9.14,0,0,0,1,4.36,7.59,7.59,0,0,0,2.72,2.84,7.47,7.47,0,0,0,3.72,1,7.1,7.1,0,0,0,6.44-3.8A9.33,9.33,0,0,0,485.49,1837.32Zm-14.88-6.84a8.43,8.43,0,0,1,3.2-3.12,9.54,9.54,0,0,1,5-1.28,10.12,10.12,0,0,1,5.28,1.4,9.77,9.77,0,0,1,3.76,4,12.27,12.27,0,0,1,1.36,5.88,12.69,12.69,0,0,1-1.36,5.92,10,10,0,0,1-9,5.48,9.84,9.84,0,0,1-5-1.24,9.19,9.19,0,0,1-3.24-3.16v14.44H467v-32.32h3.64Zm-21.42,6.88a8.84,8.84,0,0,0-1-4.32,6.86,6.86,0,0,0-2.72-2.8,7.11,7.11,0,0,0-3.72-1,7.36,7.36,0,0,0-3.72,1,7,7,0,0,0-2.68,2.8,8.84,8.84,0,0,0-1,4.32,9.22,9.22,0,0,0,1,4.4,7.41,7.41,0,0,0,10.12,2.84,7.22,7.22,0,0,0,2.72-2.84A9.14,9.14,0,0,0,449.19,1837.36Zm-18.56,0a12.16,12.16,0,0,1,1.36-5.88,9.88,9.88,0,0,1,3.72-4,10.38,10.38,0,0,1,5.36-1.4,9.35,9.35,0,0,1,5,1.28,8,8,0,0,1,3.16,3.08v-4h3.68v32.32h-3.68v-14.44a8.65,8.65,0,0,1-3.2,3.12,9.73,9.73,0,0,1-5,1.28,9.86,9.86,0,0,1-5.24-1.44,10.17,10.17,0,0,1-3.72-4A12.57,12.57,0,0,1,430.63,1837.32Zm-7.11,0a8.84,8.84,0,0,0-1-4.32,6.86,6.86,0,0,0-2.72-2.8,7.11,7.11,0,0,0-3.72-1,7.36,7.36,0,0,0-3.72,1,7,7,0,0,0-2.68,2.8,8.84,8.84,0,0,0-1,4.32,9.22,9.22,0,0,0,1,4.4,7.41,7.41,0,0,0,10.12,2.84,7.22,7.22,0,0,0,2.72-2.84A9.14,9.14,0,0,0,423.52,1837.36Zm-18.56,0a12.16,12.16,0,0,1,1.36-5.88,9.88,9.88,0,0,1,3.72-4,10.29,10.29,0,0,1,5.32-1.4,9.69,9.69,0,0,1,5,1.24,8.17,8.17,0,0,1,3.16,3.12v-4h3.68v21.92h-3.68v-4.08a8.73,8.73,0,0,1-3.24,3.2,9.71,9.71,0,0,1-5,1.24,9.92,9.92,0,0,1-5.28-1.44,10.17,10.17,0,0,1-3.72-4A12.57,12.57,0,0,1,405,1837.32ZM393,1826a9.25,9.25,0,0,1,4.48,1.08,7.17,7.17,0,0,1,3.12,3.16,10.52,10.52,0,0,1,1.16,5.16v12.92h-3.6V1836a6.93,6.93,0,0,0-1.64-5,5.79,5.79,0,0,0-4.48-1.76,6.07,6.07,0,0,0-4.6,1.8,7.4,7.4,0,0,0-1.68,5.24v12.12h-3.64v-29.6h3.64v10.8a7.2,7.2,0,0,1,3-2.6A9.69,9.69,0,0,1,393,1826Zm-19.65,3.4v12.92a3.19,3.19,0,0,0,.68,2.28,3.47,3.47,0,0,0,2.36.64H379v3.08h-3.28a6.57,6.57,0,0,1-4.56-1.4q-1.51-1.41-1.52-4.6v-12.92h-2.84v-3h2.84v-5.52h3.64v5.52H379v3Zm-19.95-6v9.32h10.16v3H353.37v9.6h11.36v3h-15v-27.92h15v3Z" transform="translate(-347.45 -1577.36)"/></svg>