<svg width="104" height="35" viewBox="0 0 104 35" fill="none" xmlns="http://www.w3.org/2000/svg">
<g clip-path="url(#clip0_1_802)">
<path d="M95.9283 28.5606C94.4518 27.5049 94.0568 26.9848 94.4458 26.3121C95.1389 25.0746 96.0368 26.1997 96.9163 26.1922C96.8363 25.3604 96.1636 24.9714 95.781 24.3912C95.4339 23.9436 95.0142 23.5439 94.7396 23.0485C94.4172 22.4805 94.5285 21.9389 95.0486 21.544C95.4961 21.1969 96.0377 21.3081 96.3848 21.7557C96.7443 22.1431 97.1161 22.4703 97.4154 22.8453C98.54 24.3932 99.7372 25.8934 100.862 27.4413C101.783 28.7593 101.417 29.6249 99.812 30.1107C98.883 30.3589 97.9664 30.547 97.025 30.8554C95.2025 31.4847 93.4402 32.1262 91.6053 32.8157C90.9294 33.0532 90.2782 33.1703 89.7999 32.445C89.4297 31.8045 89.578 31.0824 90.4839 30.6412C91.6074 30.0566 92.8867 29.6294 94.058 29.1173C94.7215 28.94 95.2524 28.7981 95.9283 28.5606Z" fill="#F99132"/>
<path d="M39.6937 10.7425C39.0564 10.4862 38.5041 10.122 38.6523 9.39983C38.7528 8.60516 39.4164 8.42783 40.0305 8.49121C42.2587 8.63515 44.5347 8.85163 46.7382 9.11592C46.9789 9.16535 47.34 9.23949 47.4958 9.39691C47.7596 9.63923 48.0466 10.0744 47.9848 10.3753C47.9832 10.6886 47.5958 11.048 47.3057 11.2393C47.0881 11.3828 46.7624 11.4414 46.5217 11.3919C44.2581 11.1153 41.982 10.8988 39.6937 10.7425Z" fill="#F99132"/>
<path d="M65.8609 13.4187C66.7991 13.7368 67.8098 14.007 68.7479 14.325C69.3373 14.5088 69.6968 14.8962 69.5485 15.6183C69.4126 16.2803 68.8694 16.4823 68.2429 16.4791C67.8695 16.4652 67.4482 16.3787 67.0995 16.2443C65.5596 15.8027 63.9718 15.2886 62.4443 14.7868C62.2637 14.7497 62.0832 14.7126 61.9752 14.6277C61.4105 14.3236 61.051 13.9362 61.2471 13.2866C61.4309 12.6972 61.9988 12.3748 62.5882 12.5586C63.6591 12.8412 64.7176 13.1839 65.8362 13.5391C65.8486 13.4789 65.8609 13.4187 65.8609 13.4187Z" fill="#F99132"/>
<path d="M74.5696 16.2102C75.46 16.4557 76.2901 16.6889 77.1681 16.9946C77.8177 17.1907 78.2851 17.663 78.0767 18.3728C77.8682 19.0825 77.2525 19.3324 76.6029 19.1363C74.7142 18.5604 72.8256 17.9844 70.9493 17.3483C70.3599 17.1646 69.9773 16.5843 70.2814 16.0196C70.4759 15.6832 71.1287 15.2528 71.4898 15.327C72.573 15.5494 73.559 15.94 74.5696 16.2102C74.5573 16.2704 74.5573 16.2704 74.5696 16.2102Z" fill="#F99132"/>
<path d="M19.7817 9.97787C18.9639 9.68452 18.7635 8.82806 19.3808 8.26495C19.5383 8.10913 19.7559 7.96567 19.9488 7.94256C21.745 7.74693 23.4686 7.59913 25.3127 7.47604C25.8913 7.40671 26.419 7.89134 26.2831 8.55331C26.1966 8.97455 25.7597 9.57473 25.3863 9.56077C23.6503 9.76875 21.8063 9.89184 20.0348 9.96711C19.9623 10.0149 19.8419 9.99022 19.7817 9.97787Z" fill="#F99132"/>
<path d="M57.1136 11.1209C57.2941 11.1579 57.4623 11.2552 57.6428 11.2922C58.2924 11.4883 58.9899 11.757 58.7443 12.6473C58.5713 13.4898 57.7998 13.5822 57.1378 13.4463C55.621 13.1976 54.1891 12.8408 52.6846 12.5319C52.0227 12.396 51.5305 12.0441 51.6186 11.3096C51.682 10.6955 52.3348 10.2651 53.1896 10.3779C54.4657 10.5772 55.7897 10.849 57.1136 11.1209Z" fill="#F99132"/>
<path d="M89.3451 22.4426C90.4745 23.0507 91.712 23.7438 92.9972 24.5095C93.5619 24.8136 93.8365 25.3089 93.52 25.9338C93.2638 26.5711 92.6727 26.7006 92.0957 26.4567C91.3381 26.1757 90.6052 25.7743 89.8121 25.3606C89.1872 25.0442 88.5021 24.7154 87.8896 24.3387C87.3249 24.0346 86.8574 23.5624 87.1986 22.8171C87.5274 22.132 88.1539 22.1352 88.8035 22.3313C88.9238 22.3561 89.0442 22.3808 89.3451 22.4426Z" fill="#F99132"/>
<path d="M34.2024 7.85888C34.4291 8.28173 34.9089 8.69383 34.8826 9.12743C34.881 9.44068 34.2035 9.99143 33.8902 9.98983C32.4444 10.0065 30.9754 9.83033 29.5789 9.60631C29.278 9.54452 28.9078 8.90407 28.8616 8.51829C28.7923 7.93961 29.3 7.60486 29.854 7.65589C31.1671 7.67466 32.5883 7.77832 34.2024 7.85888Z" fill="#F99132"/>
<path d="M15.9351 8.24727C16.1742 8.60995 16.5461 8.93715 16.5445 9.2504C16.5429 9.56365 16.3236 10.0204 16.0937 10.224C15.8514 10.4878 15.3931 10.5819 15.0073 10.6281C13.8977 10.8393 12.836 11.123 11.691 11.2015C11.3053 11.2477 10.7653 10.8232 10.5863 10.4729C10.4552 10.1951 10.7239 9.49771 11.0016 9.3666C12.5233 8.67559 14.1744 8.57561 15.9351 8.24727Z" fill="#F99132"/>
<path d="M1.01382 14.0265C0.256218 13.7455 -0.0275058 12.6838 0.685485 12.2657C1.83368 11.5608 3.18553 11.0857 4.47719 10.5984C4.74262 10.5274 5.29497 10.8917 5.47391 11.242C5.61737 11.4596 5.46909 12.1818 5.20367 12.2527C3.99529 12.9453 2.69127 13.4929 1.37489 14.1006C1.24218 14.1361 1.13418 14.0512 1.01382 14.0265Z" fill="#F99132"/>
<path d="M81.4107 21.3779C80.7858 21.0614 80.1609 20.745 79.4758 20.4162C78.9111 20.1121 78.6366 19.6167 78.8805 19.0396C79.1368 18.4024 79.7278 18.2729 80.3172 18.4566C81.0872 18.6774 81.7722 19.0062 82.5051 19.4076C83.13 19.724 83.67 20.1485 83.3643 21.0264C83.1204 21.6035 82.3967 21.7685 81.4107 21.3779Z" fill="#F99132"/>
</g>
<defs>
<clipPath id="clip0_1_802">
<rect width="102.226" height="14.6827" fill="white" transform="translate(2.95312) rotate(11.6033)"/>
</clipPath>
</defs>
</svg>
