<svg width="140" height="42" viewBox="0 0 140 42" fill="none" xmlns="http://www.w3.org/2000/svg">
<path d="M134.735 40.8643H5.26997C2.64629 40.8643 0.520203 38.7289 0.520203 36.0938V5.29045C0.520203 2.65536 2.64629 0.52002 5.26997 0.52002H134.735C137.359 0.52002 139.485 2.65536 139.485 5.29045V36.0938C139.485 38.7289 137.359 40.8643 134.735 40.8643Z" fill="black"/>
<mask id="mask0_15_602" style="mask-type:luminance" maskUnits="userSpaceOnUse" x="0" y="0" width="140" height="42">
<path d="M0 0H140V42H0V0Z" fill="white"/>
</mask>
<g mask="url(#mask0_15_602)">
<path d="M5.26747 1.04239C2.93531 1.04239 1.03791 2.94804 1.03791 5.29034V36.0937C1.03791 38.436 2.93531 40.3417 5.26747 40.3417H134.735C137.067 40.3417 138.965 38.436 138.965 36.0937V5.29034C138.965 2.94804 137.067 1.04239 134.735 1.04239H5.26747ZM134.735 41.3866H5.26747C2.36232 41.3866 0 39.0115 0 36.0937V5.29034C0 2.37256 2.36232 -0.00256348 5.26747 -0.00256348H134.735C137.64 -0.00256348 140.003 2.37256 140.003 5.29034V36.0937C140.003 39.0115 137.64 41.3866 134.735 41.3866Z" fill="#A7A9AB"/>
</g>
<path d="M48.5482 10.8307L48.0154 9.15477C47.8847 8.74082 47.7741 8.27892 47.6736 7.88517H47.6535C47.5555 8.27892 47.4524 8.75092 47.3343 9.15477L46.8116 10.8307H48.5482ZM46.6106 11.7671L46.0275 13.6955H44.7509L46.9222 6.89575H48.4979L50.6969 13.6955H49.3725L48.7593 11.7671" fill="white"/>
<path d="M52.5439 8.78369L53.3381 11.2724C53.4788 11.7065 53.5768 12.1003 53.6673 12.5041H53.6974C53.7879 12.1003 53.8985 11.7166 54.0292 11.2724L54.8132 8.78369H56.1075L54.2403 13.6955H53.0264L51.2069 8.78369" fill="white"/>
<path d="M59.8345 11.2924C58.96 11.2823 58.1256 11.4641 58.1256 12.2112C58.1256 12.6958 58.4372 12.9179 58.8293 12.9179C59.3294 12.9179 59.6837 12.5948 59.8019 12.2415C59.8345 12.1506 59.8345 12.0597 59.8345 11.9689V11.2924ZM61.0383 12.5141C61.0383 12.9583 61.0584 13.3924 61.1187 13.6928H60.0029L59.9149 13.1501H59.8823C59.5933 13.5313 59.0806 13.8039 58.4372 13.8039C57.4521 13.8039 56.9017 13.0896 56.9017 12.3424C56.9017 11.1107 57.9949 10.4772 59.8019 10.4873V10.4065C59.8019 10.0834 59.6737 9.54833 58.8092 9.54833C58.3267 9.54833 57.824 9.69977 57.4923 9.91179L57.2511 9.1041C57.6129 8.88198 58.2462 8.67249 59.0203 8.67249C60.5859 8.67249 61.0383 9.66948 61.0383 10.7498" fill="white"/>
<path d="M62.7848 8.78365H64.0188V13.6954H62.7848V8.78365ZM63.3955 8.07692C62.9859 8.07692 62.7145 7.77403 62.7145 7.41057C62.7145 7.02692 62.9934 6.73413 63.4081 6.73413C63.8278 6.73413 64.0891 7.02692 64.0992 7.41057C64.0992 7.77403 63.8278 8.07692 63.4081 8.07692" fill="white"/>
<path d="M65.7956 13.6954H67.032V6.52209H65.7956V13.6954Z" fill="white"/>
<path d="M71.4099 11.2924C70.5353 11.2823 69.701 11.4641 69.701 12.2112C69.701 12.6958 70.0126 12.9179 70.4046 12.9179C70.9073 12.9179 71.2591 12.5948 71.3797 12.2415C71.4099 12.1506 71.4099 12.0597 71.4099 11.9689V11.2924ZM72.6137 12.5141C72.6137 12.9583 72.6338 13.3924 72.6941 13.6928H71.5808L71.4903 13.1501H71.4601C71.1686 13.5313 70.6559 13.8039 70.0126 13.8039C69.03 13.8039 68.4771 13.0896 68.4771 12.3424C68.4771 11.1107 69.5728 10.4772 71.3797 10.4873V10.4065C71.3797 10.0834 71.249 9.54833 70.3845 9.54833C69.902 9.54833 69.3994 9.69977 69.0702 9.91179L68.8289 9.1041C69.1908 8.88198 69.8216 8.67249 70.5956 8.67249C72.1613 8.67249 72.6137 9.66948 72.6137 10.7498" fill="white"/>
<path d="M75.5967 11.6661C75.5967 11.767 75.6068 11.868 75.6269 11.9589C75.7576 12.4637 76.1898 12.8271 76.7201 12.8271C77.4941 12.8271 77.9666 12.2113 77.9666 11.2143C77.9666 10.346 77.5544 9.63928 76.7301 9.63928C76.2275 9.63928 75.7676 10.0027 75.6369 10.5479C75.6168 10.6388 75.5967 10.7499 75.5967 10.871V11.6661ZM74.3603 6.52209H75.5967V9.45755H75.6168C75.9184 8.98303 76.4487 8.67258 77.1825 8.67258C78.3787 8.67258 79.2307 9.66957 79.2206 11.1638C79.2206 12.9281 78.1073 13.8065 77.0016 13.8065C76.3682 13.8065 75.8078 13.5642 75.456 12.9584H75.4359L75.3756 13.6954H74.3201C74.3402 13.3622 74.3603 12.817 74.3603 12.3223" fill="white"/>
<path d="M80.6757 13.6954H81.9096V6.52209H80.6757V13.6954Z" fill="white"/>
<path d="M86.7197 10.7195C86.7297 10.2652 86.5287 9.51804 85.7069 9.51804C84.9429 9.51804 84.6212 10.2147 84.571 10.7195H86.7197ZM84.571 11.5852C84.6011 12.4737 85.2947 12.8573 86.0788 12.8573C86.6493 12.8573 87.0514 12.7665 87.4334 12.6352L87.6143 13.4808C87.1921 13.665 86.6091 13.7938 85.9079 13.7938C84.3196 13.7938 83.3848 12.817 83.3848 11.3152C83.3848 9.95217 84.2091 8.67249 85.7772 8.67249C87.363 8.67249 87.8857 9.98246 87.8857 11.0627C87.8857 11.295 87.8656 11.4767 87.8455 11.5852" fill="white"/>
<path d="M94.0203 12.9078C94.7215 12.9078 95.2141 12.2213 95.2141 11.2243C95.2141 10.457 94.8723 9.56852 94.0304 9.56852C93.1558 9.56852 92.804 10.4267 92.804 11.2445C92.804 12.191 93.2765 12.9078 94.0078 12.9078H94.0203ZM93.9801 13.8064C92.6029 13.8064 91.5298 12.8573 91.5298 11.2748C91.5298 9.65938 92.5828 8.67249 94.0605 8.67249C95.5156 8.67249 96.4907 9.69977 96.4907 11.194C96.4907 12.9987 95.2241 13.8064 93.9902 13.8064" fill="white"/>
<path d="M97.9432 10.245C97.9432 9.67958 97.9256 9.20506 97.9055 8.78102H98.9786L99.0389 9.51804H99.0691C99.2902 9.13438 99.823 8.67249 100.637 8.67249C101.489 8.67249 102.374 9.22525 102.374 10.7801V13.6928H101.137V10.9214C101.137 10.2147 100.876 9.67958 100.205 9.67958C99.7124 9.67958 99.3707 10.0329 99.24 10.4065C99.1998 10.5075 99.1797 10.6589 99.1797 10.8002V13.6928H97.9432" fill="white"/>
<path d="M108.066 7.52173V8.78122H109.24V9.71007H108.066V11.8681C108.066 12.4739 108.227 12.7768 108.697 12.7768C108.918 12.7768 109.039 12.7667 109.179 12.7263L109.199 13.6627C109.019 13.7359 108.687 13.794 108.305 13.794C107.845 13.794 107.473 13.6425 107.242 13.3926C106.97 13.11 106.85 12.6556 106.85 12.0095V9.71007H106.156V8.78122H106.85V7.865" fill="white"/>
<path d="M110.614 6.52209H111.851V9.44746H111.871C112.022 9.21524 112.233 9.02342 112.484 8.89217C112.735 8.75334 113.024 8.67258 113.336 8.67258C114.17 8.67258 115.042 9.22534 115.042 10.8003V13.6954H113.808V10.9316C113.808 10.2249 113.547 9.67967 112.863 9.67967C112.383 9.67967 112.042 10.0027 111.901 10.3763C111.861 10.4874 111.851 10.6186 111.851 10.7499V13.6954H110.614" fill="white"/>
<path d="M119.822 10.7195C119.832 10.2652 119.631 9.51804 118.807 9.51804C118.043 9.51804 117.724 10.2147 117.673 10.7195H119.822ZM117.673 11.5852C117.704 12.4737 118.395 12.8573 119.179 12.8573C119.752 12.8573 120.154 12.7665 120.533 12.6352L120.717 13.4808C120.295 13.665 119.712 13.7938 119.008 13.7938C117.422 13.7938 116.487 12.817 116.487 11.3152C116.487 9.95217 117.312 8.67249 118.877 8.67249C120.463 8.67249 120.986 9.98246 120.986 11.0627C120.986 11.295 120.966 11.4767 120.946 11.5852" fill="white"/>
<path d="M31.2454 20.2883C31.2127 16.9238 33.9872 15.2857 34.1154 15.2099C32.5447 12.908 30.1095 12.595 29.2525 12.5698C27.2094 12.3553 25.2265 13.8015 24.1861 13.8015C23.1231 13.8015 21.5172 12.5925 19.7907 12.6279C17.5641 12.6632 15.4832 13.958 14.3423 15.9646C11.99 20.0612 13.7442 26.0785 16.0009 29.39C17.1318 31.0104 18.4487 32.8227 20.1752 32.7571C21.864 32.6864 22.4948 31.6768 24.5329 31.6768C26.5534 31.6768 27.1465 32.7571 28.9082 32.7167C30.7202 32.6864 31.8611 31.0887 32.9493 29.4506C34.2561 27.5929 34.7788 25.763 34.7989 25.6696C34.7562 25.6544 31.2806 24.3217 31.2454 20.2883Z" fill="white"/>
<path d="M27.9181 10.394C28.8254 9.2531 29.4511 7.69829 29.2752 6.12329C27.9609 6.18387 26.3173 7.03699 25.3698 8.15262C24.533 9.13699 23.7816 10.7499 23.9776 12.2643C25.4553 12.3753 26.9707 11.5172 27.9181 10.394Z" fill="white"/>
<path d="M51.6267 26.712L50.4607 23.095C50.3375 22.7265 50.1063 21.8557 49.7645 20.4877H49.7243C49.5886 21.0758 49.3675 21.9466 49.0684 23.095L47.9224 26.712H51.6267ZM55.6578 32.4895H53.303L52.0138 28.4207H47.5354L46.3065 32.4895H44.0146L48.4577 18.6376H51.197" fill="white"/>
<path d="M64.8255 27.4538C64.8255 26.4795 64.6069 25.6794 64.1696 25.0484C63.6921 24.3922 63.0513 24.0615 62.2471 24.0615C61.7017 24.0615 61.2041 24.2458 60.7643 24.6067C60.322 24.9727 60.0305 25.4472 59.8923 26.0378C59.8244 26.3104 59.7918 26.5351 59.7918 26.7117V28.3776C59.7918 29.1045 60.0129 29.7179 60.4552 30.2176C60.9 30.7199 61.4755 30.9673 62.1842 30.9673C63.0186 30.9673 63.667 30.6467 64.1269 30.0006C64.5943 29.3569 64.8255 28.5089 64.8255 27.4538ZM67.0773 27.3705C67.0773 29.0692 66.6199 30.4145 65.7051 31.3989C64.8858 32.2773 63.868 32.7139 62.6567 32.7139C61.3449 32.7139 60.405 32.2394 59.832 31.2954H59.7918V36.558H57.5802V25.7879C57.5802 24.7203 57.5551 23.6248 57.4998 22.4991H59.4424L59.5656 24.0842H59.6083C60.3447 22.8904 61.463 22.2947 62.9633 22.2947C64.1344 22.2947 65.117 22.7616 65.8986 23.693C66.6827 24.6269 67.0773 25.851 67.0773 27.3705Z" fill="white"/>
<path d="M76.2626 27.4538C76.2626 26.4795 76.044 25.6794 75.6067 25.0484C75.1292 24.3922 74.4884 24.0615 73.6842 24.0615C73.1389 24.0615 72.6438 24.2458 72.2015 24.6067C71.7566 24.9727 71.4701 25.4472 71.3344 26.0378C71.2641 26.3104 71.2314 26.5351 71.2314 26.7117V28.3776C71.2314 29.1045 71.45 29.7179 71.8924 30.2176C72.3372 30.7199 72.9127 30.9673 73.6239 30.9673C74.4557 30.9673 75.1041 30.6467 75.5665 30.0006C76.0289 29.3569 76.2626 28.5089 76.2626 27.4538ZM78.5119 27.3705C78.5119 29.0692 78.057 30.4145 77.1422 31.3989C76.323 32.2773 75.3077 32.7139 74.0938 32.7139C72.7845 32.7139 71.8446 32.2394 71.2691 31.2954H71.2314V36.558H69.0199V25.7879C69.0199 24.7203 68.9922 23.6248 68.9395 22.4991H70.8821L71.0052 24.0842H71.0479C71.7818 22.8904 72.9001 22.2947 74.4004 22.2947C75.574 22.2947 76.5516 22.7616 77.3382 23.693C78.1223 24.6269 78.5119 25.851 78.5119 27.3705Z" fill="white"/>
<path d="M91.3037 28.6049C91.3037 29.7811 90.8965 30.7403 90.0773 31.4823C89.1776 32.29 87.9286 32.6939 86.3227 32.6939C84.8374 32.6939 83.6462 32.4061 82.744 31.8307L83.2567 29.9831C84.2293 30.5712 85.2923 30.864 86.4534 30.864C87.2852 30.864 87.9336 30.6772 88.3985 30.3011C88.8609 29.9225 89.0921 29.4177 89.0921 28.7867C89.0921 28.2263 88.9036 27.7493 88.5216 27.3656C88.1397 26.982 87.5038 26.6261 86.6167 26.2954C84.2016 25.3893 82.9953 24.0642 82.9953 22.3226C82.9953 21.1843 83.4175 20.2504 84.2644 19.5235C85.1088 18.7965 86.2347 18.4305 87.6395 18.4305C88.8961 18.4305 89.939 18.6527 90.7709 19.0893L90.218 20.8991C89.4414 20.475 88.5619 20.2605 87.5792 20.2605C86.8002 20.2605 86.1945 20.4523 85.7597 20.836C85.3928 21.1792 85.2069 21.5982 85.2069 22.0904C85.2069 22.6381 85.4154 23.0899 85.8402 23.4458C86.2071 23.7739 86.8756 24.1298 87.8456 24.516C89.0318 24.9956 89.9039 25.5559 90.4643 26.1995C91.0222 26.8432 91.3037 27.6458 91.3037 28.6049Z" fill="white"/>
<path d="M98.6066 24.1651H96.1714V29.0138C96.1714 30.248 96.6012 30.8639 97.4632 30.8639C97.8552 30.8639 98.1844 30.8311 98.4433 30.7629L98.5036 32.4465C98.0713 32.6131 97.4958 32.6938 96.7871 32.6938C95.9151 32.6938 95.2315 32.4263 94.739 31.8937C94.2489 31.3586 94.0026 30.4601 94.0026 29.2006V24.1651H92.55V22.4992H94.0026V20.6718L96.1714 20.0131V22.4992H98.6066" fill="white"/>
<path d="M107.304 27.4841C107.304 26.5628 107.106 25.7753 106.709 25.114C106.249 24.3164 105.586 23.9176 104.726 23.9176C103.839 23.9176 103.163 24.3164 102.7 25.114C102.303 25.7753 102.11 26.578 102.11 27.527C102.11 28.4483 102.303 29.2358 102.7 29.8946C103.178 30.6922 103.846 31.091 104.708 31.091C105.55 31.091 106.214 30.6871 106.691 29.8744C107.101 29.203 107.304 28.4054 107.304 27.4841ZM109.596 27.4134C109.596 28.948 109.162 30.2075 108.287 31.1944C107.372 32.2091 106.159 32.7139 104.646 32.7139C103.183 32.7139 102.022 32.2268 101.155 31.255C100.29 30.2833 99.8582 29.0566 99.8582 27.5775C99.8582 26.0277 100.303 24.7607 101.198 23.7763C102.09 22.7869 103.294 22.2947 104.806 22.2947C106.267 22.2947 107.443 22.7818 108.327 23.7536C109.174 24.7026 109.596 25.9192 109.596 27.4134Z" fill="white"/>
<path d="M116.779 24.4527C116.56 24.4123 116.329 24.3922 116.083 24.3922C115.306 24.3922 114.703 24.6875 114.281 25.2756C113.914 25.798 113.73 26.4543 113.73 27.2468V32.4893H111.521L111.539 25.6466C111.539 24.4931 111.511 23.4456 111.459 22.4991H113.384L113.464 24.4123H113.522C113.756 23.7561 114.125 23.226 114.628 22.8298C115.12 22.4739 115.653 22.2947 116.226 22.2947C116.43 22.2947 116.616 22.3098 116.779 22.3351" fill="white"/>
<path d="M124.552 26.4469C124.567 25.7906 124.424 25.2202 124.125 24.7406C123.743 24.1248 123.152 23.8143 122.363 23.8143C121.642 23.8143 121.054 24.1172 120.604 24.7205C120.237 25.2 120.016 25.7755 119.953 26.4469H124.552ZM126.658 27.0224C126.658 27.4212 126.633 27.7543 126.58 28.0295H119.953C119.976 29.0164 120.297 29.7711 120.913 30.291C121.471 30.758 122.195 30.9876 123.082 30.9876C124.062 30.9876 124.957 30.8311 125.763 30.5156L126.11 32.0578C125.168 32.4667 124.057 32.6762 122.773 32.6762C121.232 32.6762 120.021 32.2194 119.141 31.3057C118.264 30.397 117.822 29.1729 117.822 27.6382C117.822 26.1314 118.229 24.8769 119.051 23.8774C119.908 22.8072 121.069 22.2747 122.526 22.2747C123.959 22.2747 125.047 22.8072 125.783 23.8774C126.369 24.7255 126.658 25.7755 126.658 27.0224Z" fill="white"/>
</svg>
