<svg width="50" height="17" viewBox="0 0 50 17" fill="none" xmlns="http://www.w3.org/2000/svg">
<g clip-path="url(#clip0_29_78)">
<path d="M21.1505 9.6145H0V16.6605H21.1505V9.6145Z" fill="#84B740"/>
<path d="M21.1505 0H0V7.05225H21.1505V0Z" fill="#259BD6"/>
<path d="M42.3009 15.2285L42.2068 15.2473C41.8802 15.3101 41.7609 15.3353 41.5223 15.3353C40.9696 15.3353 40.3165 15.0527 40.3165 13.7213C40.3165 13.0368 40.4296 12.1263 41.4595 12.1263H41.4657C41.6416 12.1388 41.8425 12.1577 42.2193 12.2707L42.3009 12.2958V15.2285ZM42.4705 8.59073L42.3009 8.62212V11.0838L42.1502 11.0399L42.1063 11.0273C41.9367 10.9771 41.5474 10.864 41.1706 10.864C39.1108 10.864 38.6775 12.4214 38.6775 13.7276C38.6775 15.5174 39.6823 16.5473 41.4343 16.5473C42.1754 16.5473 42.7217 16.4719 43.2743 16.2898C43.783 16.1265 43.9651 15.8942 43.9651 15.3981V8.33325C43.4753 8.42117 42.9666 8.50909 42.4705 8.59073Z" fill="#27292D"/>
<path d="M48.4238 15.2726L48.3359 15.2977L48.0219 15.3794C47.7268 15.4547 47.463 15.4987 47.2621 15.4987C46.7785 15.4987 46.4896 15.26 46.4896 14.8519C46.4896 14.5881 46.609 14.1422 47.4002 14.1422H48.4238V15.2726ZM47.7017 10.8328C47.0674 10.8328 46.4143 10.9458 45.6042 11.197L45.0767 11.354L45.2525 12.5472L45.7675 12.3776C46.3075 12.2018 46.9795 12.0887 47.4819 12.0887C47.7079 12.0887 48.3987 12.0887 48.3987 12.836V13.1626H47.4379C45.6858 13.1626 44.8757 13.7215 44.8757 14.9209C44.8757 15.9445 45.623 16.56 46.879 16.56C47.2683 16.56 47.8084 16.4846 48.2731 16.3716L48.2982 16.3653L48.3234 16.3716L48.4804 16.3967C48.9702 16.4846 49.4788 16.5725 49.975 16.6667V12.7481C49.975 11.4796 49.2088 10.8328 47.7017 10.8328Z" fill="#27292D"/>
<path d="M36.2219 15.2726L36.134 15.2977L35.82 15.3794C35.5249 15.4547 35.2674 15.4987 35.0602 15.4987C34.5766 15.4987 34.2877 15.26 34.2877 14.8519C34.2877 14.5881 34.4071 14.1422 35.192 14.1422H36.2157L36.2219 15.2726ZM35.506 10.8328C34.8655 10.8328 34.2187 10.9458 33.4086 11.197L32.8811 11.354L33.0569 12.5472L33.5718 12.3776C34.1119 12.2018 34.7839 12.0887 35.2862 12.0887C35.5123 12.0887 36.2031 12.0887 36.2031 12.836V13.1626H35.2423C33.4902 13.1626 32.6738 13.7215 32.6738 14.9209C32.6738 15.9445 33.4211 16.56 34.6834 16.56C35.0727 16.56 35.6128 16.4846 36.0775 16.3716L36.1026 16.3653L36.1277 16.3716L36.2785 16.3967C36.7746 16.4846 37.2769 16.5725 37.7731 16.673V12.7544C37.7793 11.4733 37.0132 10.8328 35.506 10.8328Z" fill="#27292D"/>
<path d="M29.6095 10.8451C28.8119 10.8451 28.1526 11.1089 27.9076 11.2219L27.8448 11.2533L27.7883 11.2094C27.4492 10.9645 26.9531 10.8389 26.2623 10.8389C25.6532 10.8389 25.0817 10.9268 24.46 11.1089C23.9262 11.2722 23.719 11.5296 23.719 12.0132V16.4907H25.3894V12.3523L25.4711 12.3272C25.8102 12.2141 26.0111 12.1953 26.2058 12.1953C26.6894 12.1953 26.9343 12.4528 26.9343 12.9552V16.497H28.5796V12.8861C28.5796 12.6726 28.5356 12.547 28.5293 12.5219L28.4728 12.4151L28.5859 12.3649C28.8371 12.2518 29.1134 12.1953 29.4022 12.1953C29.7351 12.1953 30.1307 12.3272 30.1307 12.9552V16.497H31.7697V12.7919C31.7697 11.4794 31.0664 10.8451 29.6095 10.8451Z" fill="#27292D"/>
<path d="M47.1929 4.59684C46.948 4.59684 46.5398 4.57172 46.2195 4.50892L46.1253 4.49008V2.07234C46.1253 1.87139 46.0876 1.74579 46.0813 1.72695L46.0311 1.62648L46.1379 1.58252C46.163 1.56996 46.1881 1.56368 46.2195 1.55112L46.2383 1.53856C46.276 1.526 46.3137 1.51344 46.3514 1.50088C46.3702 1.4946 46.3828 1.48832 46.3953 1.48832C46.7659 1.38784 47.105 1.4004 47.2557 1.38784H47.262C48.2856 1.38784 48.4049 2.29842 48.4049 2.98292C48.3986 4.31424 47.7392 4.59684 47.1929 4.59684ZM47.1866 0C47.174 0 47.1552 0 47.1426 0C46.1818 0 45.1959 0.263753 44.8442 0.778699C44.6558 1.02989 44.5491 1.34388 44.5428 1.71439V4.20749C44.5428 4.421 44.4988 4.50264 44.4926 4.52148L44.436 4.62823H41.4029V2.895H41.3966C41.3589 1.06757 40.2788 0.0627983 38.7151 0.0627983H38.533H37.1891C37.1263 0.508666 37.0761 0.822658 37.0133 1.26853H38.533C39.3305 1.26853 39.7513 1.94675 39.7513 2.9892V4.73499L39.6445 4.67847C39.6257 4.67219 39.4938 4.62823 39.2866 4.62823H36.6616C36.6114 4.96107 36.5486 5.39437 36.4795 5.82768H44.5491C44.8254 5.77116 45.1457 5.72093 45.422 5.67697C45.8302 5.87792 46.59 5.98468 47.1112 5.98468C48.8633 5.98468 50 4.81035 50 3.00176C49.9937 1.21201 48.8947 0.037679 47.1866 0Z" fill="#27292D"/>
<path d="M33.0383 6.56244H33.1136C34.8657 6.56244 35.6821 5.98469 35.6821 4.55917C35.6821 3.53556 34.9348 2.71918 33.6788 2.71918H32.0649C31.5813 2.71918 31.2925 2.44287 31.2925 1.97816C31.2925 1.66417 31.4118 1.27482 32.203 1.27482H35.7323C35.8077 0.816391 35.8453 0.527519 35.9144 0.0690918H32.247C30.5389 0.0690918 29.6786 0.784992 29.6786 1.97816C29.6786 3.15877 30.4259 3.77419 31.6818 3.77419H33.2957C33.7793 3.77419 34.0682 4.15726 34.0682 4.55917C34.0682 4.82292 33.9488 5.36927 33.1639 5.36927H32.8938L27.7255 5.35671H26.7836C25.986 5.35671 25.4271 4.90456 25.4271 3.85583V3.13365C25.4271 2.04096 25.8604 1.36274 26.7836 1.36274H28.3158C28.3849 0.898029 28.4289 0.602877 28.4917 0.163289H26.5826H26.4005C24.8368 0.163289 23.7567 1.21202 23.719 3.03945V3.10853V3.85583C23.7567 5.68326 24.8368 6.55616 26.4005 6.55616H26.5826H27.9265L30.7273 6.56244H32.3977H33.0383Z" fill="#27292D"/>
</g>
<defs>
<clipPath id="clip0_29_78">
<rect width="50" height="16.6729" fill="white"/>
</clipPath>
</defs>
</svg>
