<svg width="50" height="21" viewBox="0 0 50 21" fill="none" xmlns="http://www.w3.org/2000/svg">
<path d="M9.13594 2.64679C8.54994 3.34023 7.61233 3.88716 6.67472 3.80903C6.55752 2.87142 7.01656 1.87521 7.55373 1.25991C8.13974 0.546938 9.16524 0.039067 9.99542 0C10.0931 0.976674 9.71218 1.93382 9.13594 2.64679ZM9.98565 3.9946C8.62807 3.91646 7.46583 4.76617 6.82123 4.76617C6.16685 4.76617 5.18041 4.03366 4.10607 4.0532C2.70943 4.07273 1.41045 4.86384 0.697477 6.12375C-0.767535 8.64357 0.316574 12.3745 1.73275 14.4255C2.42619 15.4412 3.25636 16.5546 4.35024 16.5156C5.38551 16.4765 5.79572 15.8417 7.04586 15.8417C8.30577 15.8417 8.66714 16.5156 9.76101 16.496C10.894 16.4765 11.6069 15.4803 12.3004 14.4645C13.0915 13.3121 13.4138 12.1889 13.4333 12.1303C13.4138 12.1108 11.2456 11.2806 11.226 8.7803C11.2065 6.69022 12.9352 5.69401 13.0133 5.63541C12.0367 4.18993 10.5131 4.03366 9.98565 3.9946ZM17.8283 1.16224V16.3886H20.1919V11.1829H23.4638C26.4524 11.1829 28.5522 9.1319 28.5522 6.16282C28.5522 3.19373 26.4914 1.16224 23.5419 1.16224H17.8283ZM20.1919 3.15466H22.9168C24.9678 3.15466 26.1398 4.24853 26.1398 6.17258C26.1398 8.09663 24.9678 9.20027 22.9071 9.20027H20.1919V3.15466ZM32.8691 16.5058C34.3537 16.5058 35.7308 15.7538 36.3559 14.5622H36.4047V16.3886H38.5924V8.8096C38.5924 6.61208 36.8344 5.19591 34.129 5.19591C31.619 5.19591 29.7633 6.63162 29.6949 8.6045H31.8241C31.9999 7.66689 32.8691 7.05159 34.0607 7.05159C35.5062 7.05159 36.3168 7.72549 36.3168 8.96587V9.80581L33.3672 9.98161C30.6228 10.1476 29.1382 11.2708 29.1382 13.2242C29.1382 15.1971 30.6716 16.5058 32.8691 16.5058ZM33.504 14.6989C32.2441 14.6989 31.4432 14.0934 31.4432 13.1656C31.4432 12.2084 32.2148 11.6517 33.6895 11.5638L36.3168 11.3978V12.2573C36.3168 13.6832 35.1057 14.6989 33.504 14.6989ZM41.5127 20.5297C43.8177 20.5297 44.9018 19.6507 45.8491 16.9844L50 5.34241H47.5974L44.8139 14.3376H44.765L41.9815 5.34241H39.5105L43.5149 16.4277L43.3 17.1016C42.9386 18.2443 42.3526 18.6838 41.3076 18.6838C41.122 18.6838 40.7607 18.6642 40.6142 18.6447V20.4711C40.7509 20.5102 41.3369 20.5297 41.5127 20.5297Z" fill="black"/>
</svg>
