<svg width="65" height="64" viewBox="0 0 65 64" fill="none" xmlns="http://www.w3.org/2000/svg">
<g clip-path="url(#clip0_3_4628)">
<g filter="url(#filter0_d_3_4628)">
<path d="M49.3309 48.7205C58.6253 39.4838 58.6253 24.5082 49.3309 15.2716C40.0366 6.03492 24.9674 6.03492 15.673 15.2716C6.3786 24.5082 6.3786 39.4838 15.673 48.7205C24.9674 57.9571 40.0366 57.9571 49.3309 48.7205Z" fill="white"/>
</g>
<path d="M1.7 25.1429C2.9 25.441 4.1 24.7453 4.5 23.5528C4.8 22.559 4.4 21.6646 3.6 21.1677C8.1 9.34161 19.7 1.29193 32.6 1.29193C45.5 1.29193 57.1 9.34161 61.6 21.1677C60.8 21.6646 60.4 22.6584 60.7 23.5528C61 24.7453 62.3 25.441 63.5 25.1429C64.7 24.8447 65.4 23.5528 65.1 22.3602C64.8 21.2671 63.8 20.6708 62.8 20.6708C57.9 8.4472 45.9 0 32.5 0C19.1 0 7.1 8.4472 2.4 20.6708C1.4 20.5714 0.399999 21.2671 0.0999985 22.3602C-0.200001 23.5528 0.499999 24.7453 1.7 25.1429Z" fill="#11D861"/>
<path d="M63.3 39.0559C62.1 38.7578 60.9 39.4534 60.5 40.646C60.2 41.6398 60.6 42.5342 61.4 43.1305C56.8 54.9565 45.5 62.8075 32.5 62.8075C19.5 62.8075 8.2 54.9565 3.6 43.1305C4.4 42.6336 4.8 41.6398 4.5 40.646C4.2 39.4534 2.9 38.7578 1.7 39.0559C0.499999 39.3541 -0.200001 40.646 0.0999985 41.8385C0.399999 42.8323 1.4 43.528 2.4 43.528C7.2 55.851 18.9 64 32.4 64C45.9 64 57.7 55.851 62.4 43.528C63.4 43.6273 64.4 42.9317 64.7 41.8385C65.2 40.646 64.5 39.4534 63.3 39.0559Z" fill="#11D861"/>
<path d="M28.1 39.9503C26.1 39.9503 24.5 39.2547 23.5 37.8634C22.5 36.4721 22 34.6832 22 32.3975C22 30.1118 22.5 28.2236 23.5 26.9317C24.5 25.5404 26 24.8447 28.1 24.8447C30.1 24.8447 31.7 25.5404 32.7 26.9317C33.7 28.323 34.2 30.1118 34.2 32.3975C34.2 34.6832 33.7 36.5714 32.7 37.8634C31.7 39.2547 30.2 39.9503 28.1 39.9503ZM26 28.8199C25.5 29.7143 25.3 30.9068 25.3 32.3975C25.3 33.8882 25.5 35.0808 26 35.9752C26.5 36.8696 27.2 37.2671 28.2 37.2671C29.2 37.2671 29.9 36.8696 30.4 35.9752C30.9 35.0808 31.1 33.8882 31.1 32.3975C31.1 30.9068 30.9 29.7143 30.4 28.8199C29.9 27.9255 29.2 27.528 28.2 27.528C27.1 27.4286 26.4 27.9255 26 28.8199Z" fill="#11D861"/>
<path d="M35.2 25.1429H41.2V39.7516H38V27.9255H35.2V25.1429Z" fill="#11D861"/>
</g>
<defs>
<filter id="filter0_d_3_4628" x="-6.29781" y="-6.65588" width="77.5995" height="77.3038" filterUnits="userSpaceOnUse" color-interpolation-filters="sRGB">
<feFlood flood-opacity="0" result="BackgroundImageFix"/>
<feColorMatrix in="SourceAlpha" type="matrix" values="0 0 0 0 0 0 0 0 0 0 0 0 0 0 0 0 0 0 127 0" result="hardAlpha"/>
<feOffset/>
<feGaussianBlur stdDeviation="7.5"/>
<feComposite in2="hardAlpha" operator="out"/>
<feColorMatrix type="matrix" values="0 0 0 0 0.8125 0 0 0 0 1 0 0 0 0 0.887877 0 0 0 1 0"/>
<feBlend mode="normal" in2="BackgroundImageFix" result="effect1_dropShadow_3_4628"/>
<feBlend mode="normal" in="SourceGraphic" in2="effect1_dropShadow_3_4628" result="shape"/>
</filter>
<clipPath id="clip0_3_4628">
<rect width="65" height="64" fill="white"/>
</clipPath>
</defs>
</svg>
