<svg width="65" height="64" viewBox="0 0 65 64" fill="none" xmlns="http://www.w3.org/2000/svg">
<g clip-path="url(#clip0_3_4651)">
<g filter="url(#filter0_d_3_4651)">
<path d="M55.6641 37.4312C58.6847 24.7185 50.7633 11.9794 37.9712 8.9776C25.1791 5.97579 12.3604 13.848 9.33978 26.5606C6.31921 39.2733 14.2406 52.0124 27.0327 55.0142C39.8248 58.016 52.6435 50.1438 55.6641 37.4312Z" fill="white"/>
</g>
<path d="M1.69999 25.1429C2.89999 25.441 4.09999 24.7453 4.49999 23.5528C4.79999 22.559 4.39999 21.6646 3.59999 21.1677C8.09999 9.34161 19.7 1.29193 32.6 1.29193C45.5 1.29193 57.1 9.34161 61.6 21.1677C60.8 21.6646 60.4 22.6584 60.7 23.5528C61 24.7453 62.3 25.441 63.5 25.1429C64.7 24.8447 65.4 23.5528 65.1 22.3602C64.8 21.2671 63.8 20.6708 62.8 20.6708C57.9 8.4472 45.9 0 32.5 0C19.1 0 7.09999 8.4472 2.39999 20.6708C1.39999 20.5714 0.399991 21.2671 0.0999909 22.3602C-0.200009 23.5528 0.499991 24.7453 1.69999 25.1429Z" fill="#1E88E5"/>
<path d="M63.3 39.0559C62.1 38.7578 60.9 39.4534 60.5 40.646C60.2 41.6397 60.6 42.5342 61.4 43.1304C56.8 54.9565 45.5 62.8074 32.5 62.8074C19.5 62.8074 8.19999 54.9565 3.59999 43.1304C4.39999 42.6335 4.79999 41.6397 4.49999 40.646C4.19999 39.4534 2.89999 38.7578 1.69999 39.0559C0.499991 39.354 -0.200009 40.646 0.0999909 41.8385C0.399991 42.8323 1.39999 43.5279 2.39999 43.5279C7.19999 55.8509 18.9 64 32.4 64C45.9 64 57.7 55.8509 62.4 43.5279C63.4 43.6273 64.4 42.9317 64.7 41.8385C65.2 40.646 64.5 39.4534 63.3 39.0559Z" fill="#1E88E5"/>
<path d="M26 39.9503C24 39.9503 22.4 39.2547 21.4 37.8634C20.4 36.4721 19.9 34.6832 19.9 32.3975C19.9 30.1118 20.4 28.2236 21.4 26.9317C22.4 25.5404 23.9 24.8447 26 24.8447C28 24.8447 29.6 25.5404 30.6 26.9317C31.6 28.323 32.1 30.1118 32.1 32.3975C32.1 34.6832 31.6 36.5714 30.6 37.8634C29.6 39.2547 28 39.9503 26 39.9503ZM23.8 28.8199C23.3 29.7143 23.1 30.9068 23.1 32.3975C23.1 33.8882 23.3 35.0808 23.8 35.9752C24.3 36.8696 25 37.2671 26 37.2671C27 37.2671 27.7 36.8696 28.2 35.9752C28.7 35.0808 28.9 33.8882 28.9 32.3975C28.9 30.9068 28.7 29.7143 28.2 28.8199C27.7 27.9255 27 27.528 26 27.528C25 27.4286 24.3 27.9255 23.8 28.8199Z" fill="#1E88E5"/>
<path d="M39.8 30.8075C40.2 30.3106 40.4 29.8137 40.4 29.3168C40.4 28.8199 40.2 28.4224 39.9 28.1242C39.6 27.8261 39.2 27.6273 38.7 27.6273C37.8 27.6273 36.9 28.323 36.1 29.6149L33.5 28.0249C34.2 26.9317 34.9 26.1367 35.8 25.6398C36.6 25.1429 37.7 24.8447 38.9 24.8447C40.2 24.8447 41.3 25.2422 42.3 26.0373C43.3 26.8323 43.7 27.9255 43.7 29.3168C43.7 30.1118 43.5 30.8075 43.1 31.5031C42.7 32.1988 42 33.0932 41 34.1863L38.2 36.7702H44V39.7516H33.7V37.3665L38 32.9938C38.9 32 39.5 31.3044 39.8 30.8075Z" fill="#1E88E5"/>
</g>
<defs>
<filter id="filter0_d_3_4651" x="-6.30255" y="-6.66074" width="77.609" height="77.3133" filterUnits="userSpaceOnUse" color-interpolation-filters="sRGB">
<feFlood flood-opacity="0" result="BackgroundImageFix"/>
<feColorMatrix in="SourceAlpha" type="matrix" values="0 0 0 0 0 0 0 0 0 0 0 0 0 0 0 0 0 0 127 0" result="hardAlpha"/>
<feOffset/>
<feGaussianBlur stdDeviation="7.5"/>
<feComposite in2="hardAlpha" operator="out"/>
<feColorMatrix type="matrix" values="0 0 0 0 0.117647 0 0 0 0 0.533333 0 0 0 0 0.898039 0 0 0 0.35 0"/>
<feBlend mode="normal" in2="BackgroundImageFix" result="effect1_dropShadow_3_4651"/>
<feBlend mode="normal" in="SourceGraphic" in2="effect1_dropShadow_3_4651" result="shape"/>
</filter>
<clipPath id="clip0_3_4651">
<rect width="65" height="64" fill="white"/>
</clipPath>
</defs>
</svg>
