<svg width="65" height="64" viewBox="0 0 65 64" fill="none" xmlns="http://www.w3.org/2000/svg">
<g clip-path="url(#clip0_3_4691)">
<g filter="url(#filter0_d_3_4691)">
<path d="M49.3309 48.7205C58.6253 39.4838 58.6253 24.5082 49.3309 15.2716C40.0366 6.03489 24.9674 6.03489 15.673 15.2716C6.3786 24.5082 6.3786 39.4838 15.673 48.7205C24.9674 57.9571 40.0366 57.9571 49.3309 48.7205Z" fill="white"/>
</g>
<path d="M1.7 25.1429C2.9 25.441 4.1 24.7453 4.5 23.5528C4.8 22.559 4.4 21.6646 3.6 21.1677C8.1 9.34161 19.7 1.29193 32.6 1.29193C45.5 1.29193 57.1 9.34161 61.6 21.1677C60.8 21.6646 60.4 22.6584 60.7 23.5528C61 24.7453 62.3 25.441 63.5 25.1429C64.7 24.8447 65.4 23.5528 65.1 22.3602C64.8 21.2671 63.8 20.6708 62.8 20.6708C57.9 8.4472 45.9 0 32.5 0C19.1 0 7.1 8.4472 2.4 20.6708C1.4 20.5714 0.399999 21.2671 0.0999985 22.3602C-0.200001 23.5528 0.499999 24.7453 1.7 25.1429Z" fill="#FF8934"/>
<path d="M63.3 39.0559C62.1 38.7578 60.9 39.4534 60.5 40.646C60.2 41.6397 60.6 42.5342 61.4 43.1304C56.8 54.9565 45.5 62.8074 32.5 62.8074C19.5 62.8074 8.2 54.9565 3.6 43.1304C4.4 42.6335 4.8 41.6397 4.5 40.646C4.2 39.4534 2.9 38.7578 1.7 39.0559C0.499999 39.354 -0.200001 40.646 0.0999985 41.8385C0.399999 42.8323 1.4 43.5279 2.4 43.5279C7.2 55.8509 18.9 64 32.4 64C45.9 64 57.7 55.8509 62.4 43.5279C63.4 43.6273 64.4 42.9317 64.7 41.8385C65.2 40.646 64.5 39.4534 63.3 39.0559Z" fill="#FF8934"/>
<path d="M26.2 39.9503C24.2 39.9503 22.6 39.2547 21.6 37.8634C20.6 36.4721 20.1 34.6832 20.1 32.3975C20.1 30.1118 20.6 28.2236 21.6 26.9317C22.6 25.5404 24.1 24.8447 26.2 24.8447C28.2 24.8447 29.8 25.5404 30.8 26.9317C31.8 28.323 32.3 30.1118 32.3 32.3975C32.3 34.6832 31.8 36.5714 30.8 37.8634C29.7 39.2547 28.2 39.9503 26.2 39.9503ZM24 28.8199C23.5 29.7143 23.3 30.9068 23.3 32.3975C23.3 33.8882 23.5 35.0808 24 35.9752C24.5 36.8696 25.2 37.2671 26.2 37.2671C27.2 37.2671 27.9 36.8696 28.4 35.9752C28.9 35.0808 29.1 33.8882 29.1 32.3975C29.1 30.9068 28.9 29.7143 28.4 28.8199C27.9 27.9255 27.2 27.528 26.2 27.528C25.2 27.4286 24.4 27.9255 24 28.8199Z" fill="#FF8934"/>
<path d="M34.2 27.9255V25.1429H43.2V27.4286L40.2 30.8074C41.4 31.0062 42.3 31.5031 42.9 32.2981C43.5 33.0932 43.9 33.9876 43.9 35.0807C43.9 36.5714 43.4 37.8634 42.3 38.6584C41.3 39.5528 39.9 39.9503 38.3 39.9503C36.7 39.9503 35 39.354 33.3 38.2609L34.6 35.677C36 36.6708 37.2 37.1677 38.3 37.1677C39 37.1677 39.5 36.9689 39.9 36.6708C40.3 36.3727 40.5 35.8758 40.5 35.2795C40.5 34.6832 40.3 34.1863 39.8 33.7888C39.3 33.3913 38.6 33.2919 37.8 33.2919C37.3 33.2919 36.7 33.3913 35.8 33.6894V31.3043L38.6 28.0248H34.2V27.9255Z" fill="#FF8934"/>
</g>
<defs>
<filter id="filter0_d_3_4691" x="-6.29781" y="-6.65594" width="77.5995" height="77.3039" filterUnits="userSpaceOnUse" color-interpolation-filters="sRGB">
<feFlood flood-opacity="0" result="BackgroundImageFix"/>
<feColorMatrix in="SourceAlpha" type="matrix" values="0 0 0 0 0 0 0 0 0 0 0 0 0 0 0 0 0 0 127 0" result="hardAlpha"/>
<feOffset/>
<feGaussianBlur stdDeviation="7.5"/>
<feComposite in2="hardAlpha" operator="out"/>
<feColorMatrix type="matrix" values="0 0 0 0 1 0 0 0 0 0.537255 0 0 0 0 0.203922 0 0 0 0.35 0"/>
<feBlend mode="normal" in2="BackgroundImageFix" result="effect1_dropShadow_3_4691"/>
<feBlend mode="normal" in="SourceGraphic" in2="effect1_dropShadow_3_4691" result="shape"/>
</filter>
<clipPath id="clip0_3_4691">
<rect width="65" height="64" fill="white"/>
</clipPath>
</defs>
</svg>
