<svg width="50" height="33" viewBox="0 0 50 33" fill="none" xmlns="http://www.w3.org/2000/svg">
<g clip-path="url(#clip0_29_71)">
<path d="M2.5641 0H47.4359C48.8521 0 50 1.16798 50 2.6087V30C50 31.4408 48.8521 32.6087 47.4359 32.6087H2.5641C1.14801 32.6087 0 31.4408 0 30V2.6087C0 1.16798 1.14801 0 2.5641 0Z" fill="#0E4595"/>
<path d="M18.7948 22.7433L20.9334 9.97633H24.3539L22.2138 22.7433H18.7948ZM34.5711 10.2515C33.8935 9.9929 32.8316 9.71533 31.5056 9.71533C28.1258 9.71533 25.745 11.4469 25.7248 13.9286C25.7057 15.7631 27.4244 16.7865 28.7218 17.3972C30.0532 18.023 30.5007 18.422 30.4944 18.9809C30.486 19.8366 29.4312 20.2276 28.4482 20.2276C27.0791 20.2276 26.3518 20.0341 25.2285 19.5574L24.7877 19.3546L24.3077 22.2126C25.1066 22.569 26.5839 22.8777 28.1178 22.8937C31.7133 22.8937 34.0473 21.182 34.0739 18.5318C34.0867 17.0795 33.1755 15.9742 31.2021 15.063C30.0066 14.4725 29.2744 14.0783 29.2821 13.4803C29.2821 12.9497 29.9019 12.3821 31.2409 12.3821C32.3594 12.3645 33.1698 12.6127 33.8011 12.8713L34.1075 13.0187L34.5711 10.2515ZM43.373 9.97614H40.73C39.9112 9.97614 39.2984 10.2035 38.9389 11.0349L33.8591 22.7349H37.4509C37.4509 22.7349 38.038 21.1616 38.1709 20.8163C38.5635 20.8163 42.0526 20.8218 42.5515 20.8218C42.6538 21.2687 42.9675 22.7349 42.9675 22.7349H46.1415L43.373 9.97574V9.97614ZM39.1796 18.2203C39.4624 17.4847 40.5424 14.6514 40.5424 14.6514C40.5221 14.6854 40.8231 13.9122 40.9959 13.4329L41.2269 14.5337C41.2269 14.5337 41.882 17.5812 42.0189 18.2203H39.1796ZM15.8911 9.97614L12.5424 18.6827L12.1855 16.9133C11.5621 14.8738 9.61983 12.6641 7.44849 11.5578L10.5104 22.723L14.1294 22.7188L19.5143 9.97601H15.8911" fill="white"/>
<path d="M9.41799 9.9756H3.90254L3.85889 10.2412C8.14978 11.298 10.989 13.8519 12.1679 16.9201L10.9685 11.0532C10.7615 10.2448 10.161 10.0036 9.41812 9.97534" fill="#F2AE14"/>
</g>
<defs>
<clipPath id="clip0_29_71">
<rect width="50" height="32.6087" fill="white"/>
</clipPath>
</defs>
</svg>
